<?xml version="1.0" encoding="utf-8"?>
<!-- Generator: Adobe Illustrator 19.2.1, SVG Export Plug-In . SVG Version: 6.00 Build 0)  -->
<svg version="1.1" id="layer" xmlns="http://www.w3.org/2000/svg" xmlns:xlink="http://www.w3.org/1999/xlink" x="0px" y="0px"
	 viewBox="0 0 652 652" style="enable-background:new 0 0 652 652;" xml:space="preserve">
<style type="text/css">
	.st0{fill:#FFC20E;}
</style>
<path class="st0" d="M617,412.1V222l-600-1.1v191.3H617z"/>
<path d="M90.5,281.3V339h14.3v-22.1h55.9V303h-55.9v-9h55.9v-12.8H90.5z M170.8,281.3V339h61.1v-13.5H185v-44.3H170.8z M332.4,281.3
	V339h13.9v-22.1l34.9,22.1h24.8l-46.5-29.3l46.1-28.5h-24L346.2,303v-21.8H332.4z M415.3,281.3V339h72.4v-12.8h-58.9v-9.4h58.9
	v-13.5h-58.9V294h58.9v-12.8H415.3z M318.5,325.5v-44.3h-14.3v44.6h-51.4v-44.6h-14.2v44.3c0,0-1.1,12,10.9,13.9h57.4
	C319.3,337.1,318.5,325.5,318.5,325.5z M528.1,340.1c-7.1,0-13.1-6-13.1-13.1s6-13.1,13.1-13.1c7.1,0,13.1,6,13.1,13.1
	S535.6,339.4,528.1,340.1z M528.1,314.6c-6.8,0-11.6,5.6-11.6,11.6c0,6.8,5.6,11.6,11.6,11.6c6.8,0,11.6-5.6,11.6-11.6
	C540.1,320.3,534.5,314.6,528.1,314.6z M523.3,318.4h6.8c2.3,0,4.5,0.4,4.5,3.8c0,1.5-0.4,2.6-1.5,3.8c1.5,1.1,1.5,1.1,1.5,3.8
	c0,1.5,0,2.3,0.4,3.4h-2.3v-1.5c-0.4-1.5,0.4-4.5-2.6-4.5h-4.5v6.4H524v-15H523.3L523.3,318.4z M525.1,320.3v4.9h4.9
	c1.1,0,2.6-0.4,2.6-2.3c0-2.6-1.5-2.6-2.6-2.6C530,320.3,525.1,320.3,525.1,320.3z"/>
</svg>
