<?xml version="1.0" encoding="UTF-8" standalone="no"?>
<!-- Created with Inkscape (http://www.inkscape.org/) -->

<svg
   version="1.1"
   id="svg2"
   width="381.20001"
   height="111.13333"
   viewBox="0 0 381.20001 111.13333"
   sodipodi:docname="ieee master brand blue eps.eps"
   xmlns:inkscape="http://www.inkscape.org/namespaces/inkscape"
   xmlns:sodipodi="http://sodipodi.sourceforge.net/DTD/sodipodi-0.dtd"
   xmlns="http://www.w3.org/2000/svg"
   xmlns:svg="http://www.w3.org/2000/svg">
  <defs
     id="defs6" />
  <sodipodi:namedview
     id="namedview4"
     pagecolor="#ffffff"
     bordercolor="#000000"
     borderopacity="0.25"
     inkscape:showpageshadow="2"
     inkscape:pageopacity="0.0"
     inkscape:pagecheckerboard="0"
     inkscape:deskcolor="#d1d1d1" />
  <g
     id="g8"
     inkscape:groupmode="layer"
     inkscape:label="ink_ext_XXXXXX"
     transform="matrix(1.3333333,0,0,-1.3333333,0,111.13333)">
    <g
       id="g10"
       transform="scale(0.1)">
      <path
         d="M 953.453,91.7461 V 723.215 H 1128.37 V 91.7461 H 953.453 v 0"
         style="fill:#295fa3;fill-opacity:1;fill-rule:nonzero;stroke:none"
         id="path12" />
      <path
         d="M 1220.17,91.7461 V 723.215 h 481.01 V 600.793 H 1395.07 V 470.484 h 281.6 V 348.027 h -281.6 V 214.238 h 306.11 V 91.7461 h -481.01 v 0"
         style="fill:#295fa3;fill-opacity:1;fill-rule:nonzero;stroke:none"
         id="path14" />
      <path
         d="M 1799.19,91.7461 V 723.215 h 480.89 V 600.793 H 1974.05 V 470.484 h 281.51 V 348.027 H 1974.05 V 214.238 h 306.03 V 91.7461 h -480.89 v 0"
         style="fill:#295fa3;fill-opacity:1;fill-rule:nonzero;stroke:none"
         id="path16" />
      <path
         d="M 2378.02,91.7461 V 723.215 h 481.02 V 600.793 h -306 V 470.484 h 281.52 V 348.027 H 2553.04 V 214.238 h 306 V 91.7461 h -481.02 v 0"
         style="fill:#295fa3;fill-opacity:1;fill-rule:nonzero;stroke:none"
         id="path18" />
      <path
         d="m 399.031,344.121 c -2.316,-44.59 -2.883,-85.851 -6.176,-130.558 17.641,-1.598 37.559,-3.141 56.375,-0.399 l -5.617,124.609 -0.984,5.926 c -14.336,-0.554 -27.899,-1.133 -43.598,0.422 z M 288.813,469.332 c -21.735,-10.898 -53.711,-27.363 -50.192,-57.18 4.66,-16.273 22.281,-26.793 36.227,-33.492 77.09,-33.953 179.429,-35.113 260.828,-9.765 20.09,7.746 47.054,18.988 50.75,43.593 -0.219,20.344 -21.742,33.153 -37.215,40.934 v 0.961 c 5.394,2.14 11.594,4.051 17.187,4.64 v 0.547 c -27.273,4.879 -53.582,12.008 -79.992,19 5.082,-11.593 8.754,-23.808 12.992,-35.851 7.93,2.535 16.075,4.465 24.633,5.625 13.93,-5.41 33.86,-13.168 35.832,-30.586 1.547,-16.266 -16.265,-24.203 -27.519,-30.817 -59.692,-21.718 -126.864,-23.836 -189.125,-7.324 -17.199,5.422 -42.024,12.375 -44.156,34.274 12.21,28.828 43.785,34.828 70.152,41.832 -13.551,8.726 -27.336,16.461 -40.469,26.172 -14.183,-0.786 -27.148,-6.993 -39.933,-12.563 z m 131.894,173.93 -7.727,-24.805 -38.757,-111.008 c 9.707,-0.984 21.718,0 31.257,-0.984 v -0.914 l -5.671,-125.563 0.976,-1.328 c 12.399,-1.211 27.875,-1.836 40.508,0.332 v 1.977 l -5.055,121.785 0.758,4.121 34.102,0.574 c -17.012,44.934 -33.504,90.324 -49.387,135.813 z m -18.008,55.769 c 28.516,19.426 54.094,-7.722 76.184,-23.246 85.418,-68.75 166.019,-147.441 227.43,-236.308 7.75,-11.469 11.246,-29.278 4.3,-42.25 -15.925,-26.563 -37.398,-50.801 -57.765,-75.411 v -1.347 C 602.066,266.406 548.438,210.84 490.48,165.066 462.203,147.852 436.238,110.262 399.809,133.547 316.863,194.16 237.484,269.531 170.191,350.359 c -11.406,17.766 -29.222,32.325 -37.156,52.485 -11.078,27.289 13.344,46.879 27.317,67.426 68.601,84.621 153.812,167.597 242.347,228.761 z m 71.489,80.828 -31.559,44.735 c -3.875,2.367 -8.707,6.265 -12.977,7.414 -9.316,4.031 -19.359,-0.84 -26.953,-6.613 L 345.566,750.98 C 253.922,637.484 145.43,531.484 27.0547,450.242 17.6992,442.934 3.78516,435.797 0.894531,423.746 -2.21484,412.906 3.43359,403.965 10.1523,397.227 104.938,331.934 195.566,254.434 276.223,166.047 c 14.324,-15.051 25.929,-30.012 39.929,-44.133 23.594,-31.3984 51.313,-63.0273 72.996,-96.7109 6.793,-7.1172 7.969,-18.79685 18.606,-22.2656 8.32,-2.8789062 18.601,-4.83203 26.539,0 l 7.898,7.9297 C 540.27,149.805 664.648,274.57 803.613,375.313 c 13.914,12.421 40.473,17.05 40.86,40.113 -0.993,10.633 -7.176,21.105 -16.313,26.926 l -2.277,0.367 c -71.52,48.648 -138.145,103.664 -200.918,166.082 l -69.375,72.465 c -28.106,31.16 -55.414,65.668 -81.402,98.593 z m -81.731,-63.746 c 27.879,21.703 62.965,3.684 86.426,-16.273 24.574,-18.785 50.16,-40.059 72.625,-61.817 l 4.082,-2.343 c 62.203,-57.711 119.973,-121.848 167.433,-189.668 7.696,-11.801 14.493,-25.168 10.2,-40.836 C 717.387,365.613 685.238,334.07 657.113,299.531 596.285,234.051 532.117,170.691 460.277,120.145 445.746,109.871 426.152,100.383 408.738,108.547 355.863,136.219 311.273,181.551 265,222.871 211.316,272.645 157.449,330.586 116.77,391.199 c -6.043,8.52 -7.747,19 -7.575,30.219 5.235,20.934 19.559,38.152 33.129,55.789 48.071,61.254 106.953,119.363 166.41,172.441 1.371,1.368 3.914,4.258 6.063,5.641 25.535,22.074 50.906,41.625 77.66,60.824 v 0"
         style="fill:#295fa3;fill-opacity:1;fill-rule:nonzero;stroke:none"
         id="path20" />
      <path
         d="m 564.742,62.6289 h -6.015 v 7.625 h 4.753 c 2.579,0 6.075,-0.2539 6.075,-3.5351 0,-3.4649 -1.782,-4.0899 -4.813,-4.0899 z m 11.988,3.418 c 0,7.2344 -4.781,9.5078 -12.957,9.5078 h -11.804 v -31.582 h 6.758 v 13.2851 h 3.207 l 7.269,-13.2851 h 8.055 l -8.153,13.8593 c 4.27,0.3516 7.625,2.4219 7.625,8.2149 z M 563.605,37.1758 v 0.0976 c -11.636,-0.0976 -21.015,8.9571 -21.015,22.5118 0,13.4961 9.379,22.4726 21.015,22.4726 11.356,0 21.036,-8.9765 21.036,-22.4726 0,-13.5547 -9.68,-22.6094 -21.036,-22.6094 z m 0,51.9258 c -15.597,0 -29.464,-10.8008 -29.464,-29.3164 0,-18.5547 13.867,-29.3946 29.464,-29.3946 15.493,0 29.383,10.8399 29.383,29.3946 0,18.5156 -13.89,29.3164 -29.383,29.3164"
         style="fill:#295fa3;fill-opacity:1;fill-rule:evenodd;stroke:none"
         id="path22" />
    </g>
  </g>
</svg>
