<svg version="1.1" id="Layer_1" xmlns="http://www.w3.org/2000/svg"
						xmlns:xlink="http://www.w3.org/1999/xlink" x="0px" y="0px" height="mr-auto" width="mr-auto"
						viewBox="0 0 225 225" enable-background="new 0 0 225 225" xml:space="preserve">
						<path fill="#FFFEFD" opacity="1.000000" stroke="none" d="
M157.000000,226.000000 
	C104.666672,226.000000 52.833340,226.000000 1.000007,226.000000 
	C1.000005,151.000000 1.000005,76.000015 1.000002,1.000017 
	C75.999992,1.000011 150.999985,1.000011 225.999969,1.000006 
	C225.999985,75.999985 225.999985,150.999969 226.000000,225.999969 
	C203.166672,226.000000 180.333328,226.000000 157.000000,226.000000 
M50.798595,58.809448 
	C50.627693,58.659645 50.456787,58.509838 50.710831,57.835266 
	C51.474087,56.565845 52.237343,55.296421 53.000599,54.027000 
	C52.563541,53.786900 52.126480,53.546799 51.689423,53.306698 
	C50.042557,54.587132 48.395691,55.867569 46.748821,57.148003 
	C46.601276,56.934513 46.453732,56.721020 46.306187,56.507530 
	C48.660912,52.196495 51.015636,47.885464 53.370358,43.574432 
	C52.741657,43.188351 52.112953,42.802269 51.484253,42.416191 
	C48.789299,46.621944 46.094341,50.827698 42.679596,56.156765 
	C43.094906,52.583721 43.350956,50.380863 43.607002,48.178005 
	C43.081467,48.039219 42.555931,47.900433 42.030396,47.761646 
	C41.138077,49.969330 40.245762,52.177013 39.353447,54.384693 
	C38.909374,54.379848 38.465305,54.375004 38.021233,54.370159 
	C38.021233,49.255814 38.021233,44.141472 38.021233,39.027126 
	C37.276844,39.048759 36.532455,39.070393 35.788067,39.092022 
	C35.788067,44.175285 35.788067,49.258549 35.788067,54.341812 
	C35.380558,54.337212 34.973049,54.332611 34.565544,54.328011 
	C33.896687,52.201607 33.227833,50.075203 32.558979,47.948803 
	C31.984428,47.991318 31.409876,48.033833 30.835323,48.076347 
	C31.026470,50.230793 31.217619,52.385239 31.183149,54.789604 
	C31.183149,54.789604 30.962301,55.043747 30.307426,54.815544 
	C27.419802,50.933891 26.264597,45.664825 22.319313,42.630199 
	C21.842575,42.968510 21.365835,43.306820 20.889097,43.645130 
	C22.801624,47.478073 24.714153,51.311016 26.626680,55.143959 
	C26.331606,55.296268 26.036531,55.448578 25.741457,55.600883 
	C24.518478,54.783310 23.295500,53.965733 22.072521,53.148159 
	C21.702801,53.452648 21.333082,53.757141 20.963362,54.061634 
	C22.308220,56.031727 23.653078,58.001823 25.835756,61.199249 
	C20.178633,58.003407 15.828835,55.546104 11.479039,53.088802 
	C11.065987,53.577599 10.652934,54.066395 10.239882,54.555195 
	C12.442121,58.520214 18.291267,58.805084 21.082714,62.791943 
	C18.933582,62.951565 17.355722,63.068756 15.777864,63.185947 
	C15.697802,63.599117 15.617741,64.012283 15.537679,64.425453 
	C17.618551,65.349655 19.699423,66.273849 21.780294,67.198044 
	C21.665800,67.574783 21.551306,67.951515 21.436813,68.328255 
	C16.583748,68.328255 11.730681,68.328255 6.877616,68.328255 
	C6.816179,68.995331 6.754742,69.662399 6.693304,70.329475 
	C11.563547,70.622101 16.433790,70.914726 22.021950,71.250488 
	C19.338697,72.660934 17.456083,73.650520 15.573469,74.640114 
	C15.746818,75.053162 15.920165,75.466209 16.093513,75.879257 
	C18.188484,75.614349 20.283455,75.349442 22.378426,75.084534 
	C22.495485,75.363205 22.612545,75.641869 22.729605,75.920540 
	C18.559593,78.414604 14.389583,80.908676 10.219572,83.402740 
	C10.295356,83.859016 10.371140,84.315300 10.446924,84.771576 
	C11.614038,84.652740 12.926061,84.835892 13.921092,84.358429 
	C16.903772,82.927223 19.762592,81.237892 23.150049,80.144958 
	C23.319345,80.300743 23.488642,80.456520 23.235767,81.132507 
	C22.521523,82.372620 21.807278,83.612732 21.093033,84.852837 
	C21.539669,85.091942 21.986303,85.331039 22.432938,85.570145 
	C23.924252,84.332413 25.415565,83.094688 26.906881,81.856964 
	C27.290743,82.371040 27.674604,82.885117 28.058466,83.399193 
	C25.979876,84.996628 23.901285,86.594055 21.180717,88.684860 
	C21.180717,94.491600 21.090069,101.299019 21.202318,108.103088 
	C21.363962,117.901169 20.928837,127.786034 22.090015,137.473038 
	C23.929770,152.820969 38.160233,164.362976 52.719589,163.091705 
	C52.719589,158.001465 52.719589,152.870026 52.719589,147.738586 
	C52.719589,142.790848 52.719589,137.843109 52.719589,132.895370 
	C53.700577,133.199249 53.886063,133.451736 53.990902,133.734161 
	C60.967262,152.527557 76.067390,163.275253 95.257507,163.098618 
	C113.647552,162.929352 128.620422,151.452728 135.161041,132.583832 
	C135.451523,131.745804 136.258545,131.086838 136.814209,131.099686 
	C141.344574,152.777847 163.834991,167.259216 186.112701,162.842514 
	C207.975769,158.508011 223.625671,136.755814 219.470642,116.003922 
	C201.450348,116.003922 183.350464,116.003922 165.217316,116.003922 
	C165.933014,108.983215 170.385574,103.612411 176.171463,102.465851 
	C180.947693,101.519356 185.775482,104.398346 189.139771,109.930847 
	C189.886765,111.159264 191.249298,112.852844 192.367661,112.883133 
	C201.299255,113.125069 210.240326,113.018196 219.491043,113.018196 
	C219.094772,111.195061 218.904938,109.882835 218.522812,108.629211 
	C212.286713,88.170250 191.733826,75.520409 170.646851,79.138550 
	C148.843918,82.879547 132.691513,104.215538 135.047577,125.248909 
	C127.388397,125.324951 119.727570,125.523155 112.070786,125.420471 
	C108.730095,125.375679 106.453712,126.062012 104.102928,128.964005 
	C97.551422,137.051682 84.859085,134.894882 80.632957,125.364456 
	C78.081352,119.610275 79.512581,113.227524 84.295418,109.031158 
	C88.698082,105.168350 93.900002,104.486595 98.835464,107.310982 
	C94.293556,109.920441 89.877930,112.457344 85.275368,115.101654 
	C87.479767,119.032867 89.479874,122.599754 91.668556,126.502922 
	C105.665794,118.619339 119.356644,110.908325 133.232224,103.093262 
	C124.830528,87.201355 112.211143,78.248184 94.706520,78.301788 
	C74.139145,78.364769 60.694321,89.454147 52.870010,108.310593 
	C52.870010,101.442398 52.870010,94.574211 52.870010,88.954384 
	C50.193844,86.593689 48.303535,84.926216 46.413227,83.258736 
	C46.760078,82.879639 47.106934,82.500549 47.453785,82.121452 
	C48.859192,83.340477 50.264595,84.559502 51.670002,85.778534 
	C52.092682,85.492683 52.515366,85.206833 52.938049,84.920990 
	C51.912678,83.086342 50.887302,81.251694 49.178627,78.194450 
	C52.732777,80.207085 54.902767,81.771744 57.317478,82.699333 
	C59.327122,83.471306 61.223209,87.219711 64.209381,83.536766 
	C59.905685,80.993134 55.898357,78.624664 51.891029,76.256195 
	C52.034649,75.963516 52.178265,75.670830 52.321880,75.378143 
	C54.319344,75.378143 56.316811,75.378143 58.314274,75.378143 
	C58.351162,75.045212 58.388050,74.712288 58.424942,74.379356 
	C56.658035,73.550514 54.891132,72.721680 53.124229,71.892838 
	C53.190296,71.565750 53.256359,71.238655 53.322426,70.911560 
	C108.820518,70.911560 164.318604,70.911560 219.816696,70.911560 
	C219.923981,70.226341 220.031265,69.541115 220.138550,68.855896 
	C218.521347,68.569862 216.904373,68.035187 215.286926,68.033836 
	C162.794846,67.990120 110.302734,67.997780 57.810627,67.997765 
	C56.140034,67.997765 54.469440,67.997757 52.798847,67.997757 
	C52.792072,67.640862 52.785294,67.283966 52.778519,66.927078 
	C54.703640,66.146858 56.628765,65.366646 58.553886,64.586426 
	C58.414738,64.048073 58.275589,63.509720 58.136440,62.971367 
	C55.916927,63.261448 53.697414,63.551525 51.477901,63.841606 
	C51.368198,63.604946 51.258495,63.368290 51.148792,63.131634 
	C55.427296,60.545723 59.705803,57.959816 63.984310,55.373909 
	C63.876656,54.931881 63.769005,54.489853 63.661350,54.047829 
	C62.588467,54.122746 61.364922,53.889988 60.469948,54.328232 
	C57.344200,55.858826 54.331978,57.621265 50.798595,58.809448 
M119.500061,170.717255 
	C82.037064,170.777847 44.574062,170.837265 7.111119,170.922562 
	C6.845986,170.923157 6.559719,171.256897 6.328025,171.481247 
	C6.238481,171.567947 6.264627,171.782745 6.254267,171.940247 
	C6.243360,172.106049 6.251825,172.273132 6.251825,172.553162 
	C77.452873,172.553162 148.651947,172.553162 219.851013,172.553162 
	C219.853668,171.941132 219.856323,171.329117 219.858978,170.717087 
	C186.739349,170.717087 153.619705,170.717087 119.500061,170.717255 
z" />
						<path fill="#EC8D05" opacity="1.000000" stroke="none" d="
M136.824966,130.344467 
	C136.258545,131.086838 135.451523,131.745804 135.161041,132.583832 
	C128.620422,151.452728 113.647552,162.929352 95.257507,163.098618 
	C76.067390,163.275253 60.967262,152.527557 53.990902,133.734161 
	C53.886063,133.451736 53.700577,133.199249 52.719589,132.895370 
	C52.719589,137.843109 52.719589,142.790848 52.719589,147.738586 
	C52.719589,152.870026 52.719589,158.001465 52.719589,163.091705 
	C38.160233,164.362976 23.929770,152.820969 22.090015,137.473038 
	C20.928837,127.786034 21.363962,117.901169 21.202318,108.103088 
	C21.090069,101.299019 21.180717,94.491600 21.180717,88.684860 
	C23.901285,86.594055 25.979876,84.996628 28.058466,83.399193 
	C27.674604,82.885117 27.290743,82.371040 26.906881,81.856964 
	C25.415565,83.094688 23.924252,84.332413 22.432938,85.570145 
	C21.986303,85.331039 21.539669,85.091942 21.093033,84.852837 
	C21.807278,83.612732 22.521523,82.372620 23.644337,80.697067 
	C24.123098,79.902397 24.193289,79.543175 24.263477,79.183952 
	C23.732237,79.339073 23.200996,79.494186 22.669754,79.649300 
	C19.762592,81.237892 16.903772,82.927223 13.921092,84.358429 
	C12.926061,84.835892 11.614038,84.652740 10.446924,84.771576 
	C10.371140,84.315300 10.295356,83.859016 10.219572,83.402740 
	C14.389583,80.908676 18.559593,78.414604 22.729605,75.920540 
	C22.612545,75.641869 22.495485,75.363205 22.378426,75.084534 
	C20.283455,75.349442 18.188484,75.614349 16.093513,75.879257 
	C15.920165,75.466209 15.746818,75.053162 15.573469,74.640114 
	C17.456083,73.650520 19.338697,72.660934 22.021950,71.250488 
	C16.433790,70.914726 11.563547,70.622101 6.693304,70.329475 
	C6.754742,69.662399 6.816179,68.995331 6.877616,68.328255 
	C11.730681,68.328255 16.583748,68.328255 21.436813,68.328255 
	C21.551306,67.951515 21.665800,67.574783 21.780294,67.198044 
	C19.699423,66.273849 17.618551,65.349655 15.537679,64.425453 
	C15.617741,64.012283 15.697802,63.599117 15.777864,63.185947 
	C17.355722,63.068756 18.933582,62.951565 21.082714,62.791943 
	C18.291267,58.805084 12.442121,58.520214 10.239882,54.555195 
	C10.652934,54.066395 11.065987,53.577599 11.479039,53.088802 
	C15.828835,55.546104 20.178633,58.003407 25.835756,61.199249 
	C23.653078,58.001823 22.308220,56.031727 20.963362,54.061634 
	C21.333082,53.757141 21.702801,53.452648 22.072521,53.148159 
	C23.295500,53.965733 24.518478,54.783310 25.741457,55.600883 
	C26.036531,55.448578 26.331606,55.296268 26.626680,55.143959 
	C24.714153,51.311016 22.801624,47.478073 20.889097,43.645130 
	C21.365835,43.306820 21.842575,42.968510 22.319313,42.630199 
	C26.264597,45.664825 27.419802,50.933891 30.703362,55.123238 
	C31.202454,55.133850 31.305611,54.836769 31.408766,54.539684 
	C31.217619,52.385239 31.026470,50.230793 30.835323,48.076347 
	C31.409876,48.033833 31.984428,47.991318 32.558979,47.948803 
	C33.227833,50.075203 33.896687,52.201607 34.565544,54.328011 
	C34.973049,54.332611 35.380558,54.337212 35.788067,54.341812 
	C35.788067,49.258549 35.788067,44.175285 35.788067,39.092022 
	C36.532455,39.070393 37.276844,39.048759 38.021233,39.027126 
	C38.021233,44.141472 38.021233,49.255814 38.021233,54.370159 
	C38.465305,54.375004 38.909374,54.379848 39.353447,54.384693 
	C40.245762,52.177013 41.138077,49.969330 42.030396,47.761646 
	C42.555931,47.900433 43.081467,48.039219 43.607002,48.178005 
	C43.350956,50.380863 43.094906,52.583721 42.679596,56.156765 
	C46.094341,50.827698 48.789299,46.621944 51.484253,42.416191 
	C52.112953,42.802269 52.741657,43.188351 53.370358,43.574432 
	C51.015636,47.885464 48.660912,52.196495 46.306187,56.507530 
	C46.453732,56.721020 46.601276,56.934513 46.748821,57.148003 
	C48.395691,55.867569 50.042557,54.587132 51.689423,53.306698 
	C52.126480,53.546799 52.563541,53.786900 53.000599,54.027000 
	C52.237343,55.296421 51.474087,56.565845 50.255192,58.284439 
	C49.647938,59.113895 49.496323,59.494175 49.344707,59.874454 
	C49.988678,59.681507 50.632645,59.488556 51.276615,59.295609 
	C54.331978,57.621265 57.344200,55.858826 60.469948,54.328232 
	C61.364922,53.889988 62.588467,54.122746 63.661350,54.047829 
	C63.769005,54.489853 63.876656,54.931881 63.984310,55.373909 
	C59.705803,57.959816 55.427296,60.545723 51.148792,63.131634 
	C51.258495,63.368290 51.368198,63.604946 51.477901,63.841606 
	C53.697414,63.551525 55.916927,63.261448 58.136440,62.971367 
	C58.275589,63.509720 58.414738,64.048073 58.553886,64.586426 
	C56.628765,65.366646 54.703640,66.146858 52.778519,66.927078 
	C52.785294,67.283966 52.792072,67.640862 52.798847,67.997757 
	C54.469440,67.997757 56.140034,67.997765 57.810627,67.997765 
	C110.302734,67.997780 162.794846,67.990120 215.286926,68.033836 
	C216.904373,68.035187 218.521347,68.569862 220.138550,68.855896 
	C220.031265,69.541115 219.923981,70.226341 219.816696,70.911560 
	C164.318604,70.911560 108.820518,70.911560 53.322426,70.911560 
	C53.256359,71.238655 53.190296,71.565750 53.124229,71.892838 
	C54.891132,72.721680 56.658035,73.550514 58.424942,74.379356 
	C58.388050,74.712288 58.351162,75.045212 58.314274,75.378143 
	C56.316811,75.378143 54.319344,75.378143 52.321880,75.378143 
	C52.178265,75.670830 52.034649,75.963516 51.891029,76.256195 
	C55.898357,78.624664 59.905685,80.993134 64.209381,83.536766 
	C61.223209,87.219711 59.327122,83.471306 57.317478,82.699333 
	C54.902767,81.771744 52.732777,80.207085 49.178627,78.194450 
	C50.887302,81.251694 51.912678,83.086342 52.938049,84.920990 
	C52.515366,85.206833 52.092682,85.492683 51.670002,85.778534 
	C50.264595,84.559502 48.859192,83.340477 47.453785,82.121452 
	C47.106934,82.500549 46.760078,82.879639 46.413227,83.258736 
	C48.303535,84.926216 50.193844,86.593689 52.870010,88.954384 
	C52.870010,94.574211 52.870010,101.442398 52.870010,108.310593 
	C60.694321,89.454147 74.139145,78.364769 94.706520,78.301788 
	C112.211143,78.248184 124.830528,87.201355 133.232224,103.093262 
	C119.356644,110.908325 105.665794,118.619339 91.668556,126.502922 
	C89.479874,122.599754 87.479767,119.032867 85.275368,115.101654 
	C89.877930,112.457344 94.293556,109.920441 98.835464,107.310982 
	C93.900002,104.486595 88.698082,105.168350 84.295418,109.031158 
	C79.512581,113.227524 78.081352,119.610275 80.632957,125.364456 
	C84.859085,134.894882 97.551422,137.051682 104.102928,128.964005 
	C106.453712,126.062012 108.730095,125.375679 112.070786,125.420471 
	C119.727570,125.523155 127.388397,125.324951 135.832993,125.149406 
	C136.841354,125.081665 137.064316,125.113434 137.108643,125.422424 
	C136.953400,126.845390 136.976761,127.991112 136.967102,129.440308 
	C136.897675,129.944016 136.861313,130.144241 136.824966,130.344467 
z" />
						<path fill="#EC8C02" opacity="1.000000" stroke="none" d="
M136.819580,130.722076 
	C136.861313,130.144241 136.897675,129.944016 137.427551,129.345764 
	C145.903168,128.934906 153.889893,128.778564 161.863403,129.034363 
	C163.395447,129.083511 165.448608,130.394806 166.281296,131.733459 
	C170.064087,137.814804 175.036514,140.902145 179.941254,139.675613 
	C185.588181,138.263489 190.223312,132.173782 190.604706,125.145195 
	C172.813904,125.145195 155.050583,125.145195 137.287277,125.145195 
	C137.064316,125.113434 136.841354,125.081665 136.282730,125.012009 
	C132.691513,104.215538 148.843918,82.879547 170.646851,79.138550 
	C191.733826,75.520409 212.286713,88.170250 218.522812,108.629211 
	C218.904938,109.882835 219.094772,111.195061 219.491043,113.018196 
	C210.240326,113.018196 201.299255,113.125069 192.367661,112.883133 
	C191.249298,112.852844 189.886765,111.159264 189.139771,109.930847 
	C185.775482,104.398346 180.947693,101.519356 176.171463,102.465851 
	C170.385574,103.612411 165.933014,108.983215 165.217316,116.003922 
	C183.350464,116.003922 201.450348,116.003922 219.470642,116.003922 
	C223.625671,136.755814 207.975769,158.508011 186.112701,162.842514 
	C163.834991,167.259216 141.344574,152.777847 136.819580,130.722076 
z" />
						<path fill="#EC8700" opacity="1.000000" stroke="none" d="
M120.000061,170.717163 
	C153.619705,170.717087 186.739349,170.717087 219.858978,170.717087 
	C219.856323,171.329117 219.853668,171.941132 219.851013,172.553162 
	C148.651947,172.553162 77.452873,172.553162 6.251825,172.553162 
	C6.251825,172.273132 6.243360,172.106049 6.254267,171.940247 
	C6.264627,171.782745 6.238481,171.567947 6.328025,171.481247 
	C6.559719,171.256897 6.845986,170.923157 7.111119,170.922562 
	C44.574062,170.837265 82.037064,170.777847 120.000061,170.717163 
z" />
						<path fill="#FCF2E9" opacity="1.000000" stroke="none" d="
M137.108643,125.422424 
	C155.050583,125.145195 172.813904,125.145195 190.604706,125.145195 
	C190.223312,132.173782 185.588181,138.263489 179.941254,139.675613 
	C175.036514,140.902145 170.064087,137.814804 166.281296,131.733459 
	C165.448608,130.394806 163.395447,129.083511 161.863403,129.034363 
	C153.889893,128.778564 145.903168,128.934906 137.460587,129.042297 
	C136.976761,127.991112 136.953400,126.845390 137.108643,125.422424 
z" />
						<path fill="#FFFEFD" opacity="1.000000" stroke="none" d="
M51.037605,59.052528 
	C50.632645,59.488556 49.988678,59.681507 49.344707,59.874454 
	C49.496323,59.494175 49.647938,59.113895 50.042717,58.546822 
	C50.456787,58.509838 50.627693,58.659645 51.037605,59.052528 
z" />
						<path fill="#FFFEFD" opacity="1.000000" stroke="none" d="
M22.909901,79.897125 
	C23.200996,79.494186 23.732237,79.339073 24.263477,79.183952 
	C24.193289,79.543175 24.123098,79.902397 23.855423,80.436958 
	C23.488642,80.456520 23.319345,80.300743 22.909901,79.897125 
z" />
						<path fill="#FFFEFD" opacity="1.000000" stroke="none" d="
M31.295958,54.664642 
	C31.305611,54.836769 31.202454,55.133850 31.030800,55.237343 
	C30.962301,55.043747 31.183149,54.789604 31.295958,54.664642 
z" />
					</svg>