<svg width="276" height="48" viewBox="0 0 276 48" fill="none" xmlns="http://www.w3.org/2000/svg">
<path d="M218.264 14.8291L218.271 15.3746V31.7127H227.149V33.7018H216.212V15.3746L218.264 14.8291Z" fill="#141729"/>
<path fill-rule="evenodd" clip-rule="evenodd" d="M240.847 22.2582L240.887 20.3891H240.891L242.88 19.8582V33.7018H240.872V31.0691C240.814 31.16 240.755 31.2509 240.689 31.3382C240.336 31.8182 239.907 32.24 239.408 32.6073C238.905 32.9746 238.34 33.2618 237.716 33.4728C237.088 33.68 236.435 33.7855 235.745 33.7855C234.549 33.7855 233.466 33.4764 232.497 32.8546C231.528 32.2364 230.761 31.3891 230.196 30.3164C229.634 29.2437 229.352 28.0437 229.352 26.6655C229.352 25.2873 229.641 24.0618 230.225 23C230.805 21.9346 231.583 21.0946 232.563 20.4837C233.539 19.8764 234.637 19.5673 235.851 19.5673C236.574 19.5673 237.242 19.6727 237.859 19.8837C238.182 19.9927 238.487 20.1237 238.773 20.28C239.03 20.4182 239.276 20.5782 239.503 20.7564L239.511 20.76C239.995 21.1346 240.403 21.5709 240.729 22.0691C240.77 22.1309 240.81 22.1927 240.847 22.2582ZM238.652 31.2327C239.375 30.7891 239.944 30.1673 240.359 29.3746C240.773 28.5782 240.979 27.68 240.979 26.6655C240.979 25.6509 240.773 24.7527 240.359 23.9673C239.944 23.1818 239.375 22.5637 238.652 22.1091C237.932 21.6546 237.132 21.4291 236.196 21.4291C235.261 21.4291 234.438 21.6546 233.726 22.1091C233.011 22.5637 232.449 23.1818 232.034 23.9673C231.62 24.7527 231.414 25.6727 231.414 26.6655C231.414 27.6582 231.616 28.5527 232.02 29.3491C232.427 30.1418 232.989 30.7673 233.712 31.2182C234.435 31.6727 235.283 31.9018 236.196 31.9018C237.11 31.9018 237.932 31.6764 238.652 31.2327Z" fill="#141729"/>
<path fill-rule="evenodd" clip-rule="evenodd" d="M256.129 20.4836C255.149 19.8763 254.045 19.5672 252.812 19.5672C252.177 19.5672 251.567 19.6654 250.976 19.8581C250.386 20.0508 249.842 20.3163 249.351 20.6545C248.859 20.9963 248.448 21.389 248.121 21.8327C248.018 21.9745 247.926 22.1163 247.846 22.2618V14.8436L245.864 15.3745V33.7054H247.816L247.868 31.2545C247.915 31.3236 247.963 31.389 248.015 31.4581C248.36 31.9127 248.782 32.3127 249.284 32.6618C249.787 33.0145 250.345 33.2872 250.962 33.4872C251.578 33.6872 252.213 33.789 252.867 33.789C254.1 33.789 255.205 33.4836 256.181 32.8727C257.161 32.2618 257.928 31.4181 258.493 30.3454C259.058 29.2727 259.341 28.0472 259.341 26.669C259.341 25.2908 259.047 24.0654 258.467 23.0036C257.887 21.9381 257.106 21.0981 256.129 20.4872V20.4836ZM256.735 29.349C256.324 30.1418 255.755 30.7708 255.032 31.2327C254.309 31.6945 253.483 31.9272 252.547 31.9272C251.611 31.9272 250.786 31.6981 250.063 31.2472C249.343 30.7927 248.774 30.1672 248.36 29.3745C247.945 28.5781 247.739 27.6763 247.739 26.6654C247.739 25.6545 247.945 24.7527 248.36 23.9672C248.774 23.1818 249.343 22.5636 250.063 22.109C250.786 21.6545 251.615 21.429 252.547 21.429C253.479 21.429 254.309 21.6545 255.032 22.109C255.755 22.5636 256.324 23.1818 256.735 23.9672C257.15 24.7527 257.359 25.6508 257.359 26.6654C257.359 27.6799 257.15 28.5527 256.735 29.349Z" fill="#141729"/>
<path d="M271.001 27.0836C271.475 27.4327 271.816 27.8327 272.018 28.2872H272.014C272.216 28.7418 272.319 29.2581 272.319 29.8327C272.319 30.6036 272.102 31.2836 271.673 31.8763C271.24 32.469 270.645 32.9345 269.889 33.2763C269.129 33.6145 268.267 33.7854 267.298 33.7854C266.116 33.7854 265.059 33.5672 264.127 33.1308C263.191 32.6945 262.453 32.1199 261.906 31.4036L263.308 30.1999C263.818 30.8145 264.42 31.2763 265.118 31.589C265.811 31.9054 266.593 32.0618 267.456 32.0618C267.896 32.0618 268.292 32.0108 268.645 31.9163C268.997 31.8181 269.305 31.6763 269.57 31.4836C269.834 31.2908 270.04 31.0654 270.179 30.8036C270.322 30.5418 270.392 30.2508 270.392 29.9381C270.392 29.3636 270.135 28.8836 269.625 28.4981C269.397 28.3418 269.071 28.1818 268.648 28.0145C268.223 27.8508 267.713 27.6872 267.114 27.5308C266.127 27.2508 265.309 26.9672 264.655 26.6799C264.002 26.3927 263.492 26.0581 263.121 25.6727C262.857 25.3563 262.659 25.0181 262.527 24.6508C262.394 24.2836 262.328 23.8836 262.328 23.4472C262.328 22.8872 262.446 22.3745 262.684 21.9018C262.923 21.429 263.257 21.0145 263.69 20.6581C264.123 20.3018 264.633 20.029 265.224 19.8472C265.815 19.6618 266.454 19.5708 267.14 19.5708C267.793 19.5708 268.436 19.6581 269.071 19.8327C269.702 20.0072 270.293 20.2618 270.84 20.5927C271.386 20.9236 271.853 21.3163 272.242 21.7708L271.027 23.0799C270.693 22.7308 270.322 22.4181 269.918 22.1381C269.515 21.8581 269.085 21.6399 268.637 21.4836C268.19 21.3272 267.727 21.2472 267.25 21.2472C266.828 21.2472 266.435 21.2981 266.076 21.4036C265.716 21.509 265.408 21.6545 265.151 21.8363C264.898 22.0218 264.703 22.2436 264.571 22.5054C264.439 22.7672 264.373 23.0581 264.373 23.3708C264.373 23.6327 264.428 23.869 264.531 24.0763C264.633 24.2836 264.784 24.469 264.978 24.6254C265.224 24.8181 265.573 24.9963 266.021 25.1636C266.468 25.3272 267.026 25.4981 267.698 25.6727C268.472 25.8799 269.129 26.0945 269.665 26.3127C270.205 26.5308 270.649 26.7854 271.001 27.0836Z" fill="#141729"/>
<path d="M90.812 33.7018V15.3745L95.0364 14.2545H95.04V33.7018H90.812Z" fill="#FF4E2B"/>
<path fill-rule="evenodd" clip-rule="evenodd" d="M68.4347 26.4764C69.3853 25.9527 70.134 25.2327 70.6808 24.3164C71.2277 23.4 71.4993 22.3636 71.4993 21.2145C71.4993 20.0655 71.2277 19.0982 70.6808 18.2145C70.134 17.3345 69.3816 16.64 68.42 16.1345C67.4621 15.6291 66.3904 15.3745 65.2122 15.3745H56.8882V33.7018H61.1677V27.2618H63.4799L67.1391 33.7018H72.2664L68.1264 26.6327C68.2328 26.5855 68.3356 26.5309 68.4347 26.4764ZM66.8088 22.7055C66.6253 23.0727 66.361 23.3564 66.016 23.5564C65.6747 23.7564 65.271 23.8582 64.8158 23.8582H61.1677V19.0909H64.4195C64.981 19.0909 65.4618 19.1891 65.8582 19.3818C66.2546 19.5709 66.5592 19.8473 66.7684 20.2036C66.9813 20.5636 67.0877 20.9782 67.0877 21.4509C67.0877 21.9236 66.9959 22.3382 66.8088 22.7055Z" fill="#FF4E2B"/>
<path fill-rule="evenodd" clip-rule="evenodd" d="M86.0737 21.3128C85.4755 20.6837 84.7671 20.1964 83.945 19.8473C83.1265 19.4982 82.2237 19.3237 81.2364 19.3237C80.1977 19.3237 79.2435 19.5019 78.3699 19.8582C77.5001 20.2182 76.744 20.7237 76.1128 21.3782C75.4778 22.0328 74.9823 22.8037 74.63 23.6946C74.2776 24.5855 74.1015 25.5637 74.1015 26.6255C74.1015 28.0073 74.4208 29.2328 75.0557 30.3055C75.687 31.3782 76.5789 32.2255 77.724 32.8437C78.8691 33.4655 80.2161 33.7746 81.7649 33.7746C82.3998 33.7746 83.0384 33.7019 83.6807 33.5528C84.3267 33.4037 84.9543 33.1819 85.5709 32.8837C86.1875 32.5891 86.7711 32.2037 87.3142 31.7309L85.3323 28.9564C84.7891 29.3746 84.2827 29.6728 83.8129 29.8473C83.3467 30.0219 82.8146 30.1091 82.2163 30.1091C81.3501 30.1091 80.6088 29.9528 79.9812 29.6364C79.3572 29.3237 78.8801 28.8837 78.5571 28.3164C78.4066 28.0546 78.2892 27.7709 78.2121 27.4655H87.8428L87.8721 26.3382C87.9051 25.3273 87.7657 24.3928 87.4464 23.5382C87.1307 22.6837 86.672 21.9419 86.0737 21.3128ZM83.9597 25.1091H78.1974C78.2562 24.8582 78.3369 24.6255 78.436 24.4146C78.6819 23.8982 79.0489 23.5055 79.5334 23.2364C80.0179 22.9673 80.6051 22.8291 81.2914 22.8291C81.7832 22.8291 82.2237 22.9273 82.6127 23.12C82.9981 23.3128 83.3137 23.5782 83.5486 23.9164C83.7872 24.2582 83.923 24.6473 83.9597 25.0837V25.1091Z" fill="#FF4E2B"/>
<path d="M97.9762 33.7018H102.204V19.8L97.9762 20.9236V33.7018Z" fill="#FF4E2B"/>
<path d="M179.745 33.7018H175.517V20.9236L179.745 19.8V33.7018Z" fill="#FF4E2B"/>
<path fill-rule="evenodd" clip-rule="evenodd" d="M115.263 21.3091C115.013 20.9855 114.72 20.6873 114.393 20.4219C113.967 20.0837 113.479 19.8182 112.925 19.6219C112.371 19.4328 111.758 19.3382 111.09 19.3382C109.871 19.3382 108.789 19.6437 107.838 20.2655C106.887 20.8873 106.139 21.7346 105.592 22.8182C105.045 23.9019 104.773 25.1491 104.773 26.5601C104.773 27.971 105.045 29.1746 105.592 30.2655C106.139 31.3564 106.873 32.211 107.798 32.8291C108.723 33.4546 109.776 33.7601 110.958 33.7601C111.589 33.7601 112.187 33.6619 112.752 33.4728C113.318 33.2801 113.828 33.0182 114.287 32.691C114.628 32.4473 114.925 32.1673 115.186 31.8619V33.7019H119.465V19.6255L115.263 20.7419V21.3091ZM114.922 28.5128C114.657 29.0619 114.287 29.4837 113.81 29.7819C113.336 30.0764 112.771 30.2255 112.118 30.2255C111.464 30.2255 110.932 30.0764 110.466 29.7819C110 29.4837 109.636 29.0619 109.372 28.5128C109.108 27.9637 108.976 27.3091 108.976 26.5601C108.976 25.811 109.108 25.1637 109.372 24.611C109.636 24.0619 110 23.6364 110.466 23.331C110.932 23.0219 111.486 22.8728 112.118 22.8728C112.749 22.8728 113.336 23.0219 113.81 23.331C114.287 23.6364 114.657 24.0619 114.922 24.611C115.186 25.1637 115.318 25.811 115.318 26.5601C115.318 27.3091 115.186 27.9637 114.922 28.5128Z" fill="#FF4E2B"/>
<path d="M139.314 19.5382C140.422 19.5382 141.347 19.7527 142.089 20.1782C142.83 20.6073 143.388 21.2473 143.766 22.1018C144.144 22.96 144.335 23.9963 144.335 25.2182V33.7018H140.081V25.56C140.081 25 140 24.5382 139.842 24.1709C139.685 23.8036 139.45 23.5309 139.141 23.3454C138.833 23.1636 138.451 23.0727 137.993 23.0727C137.622 23.0727 137.284 23.1345 136.976 23.2545C136.668 23.3782 136.403 23.5418 136.183 23.7527C135.963 23.9636 135.79 24.2073 135.666 24.4873C135.545 24.7636 135.482 25.08 135.482 25.4291V33.7018H131.228V25.5345C131.228 25.0109 131.148 24.5636 130.99 24.1963C130.832 23.8327 130.593 23.5527 130.274 23.36C129.958 23.1673 129.588 23.0727 129.166 23.0727C128.795 23.0727 128.457 23.1345 128.149 23.2545C127.841 23.3782 127.576 23.5418 127.356 23.7527C127.136 23.9636 126.964 24.2073 126.839 24.4873C126.718 24.7636 126.655 25.0691 126.655 25.4036V33.7018H122.401V20.8691L126.417 19.8L126.505 21.4909C126.597 21.3673 126.696 21.2473 126.802 21.1345C127.125 20.7854 127.496 20.4945 127.91 20.2582C128.325 20.0218 128.758 19.8436 129.206 19.72C129.654 19.6 130.109 19.5382 130.568 19.5382C131.254 19.5382 131.878 19.6436 132.443 19.8509C133.005 20.0618 133.5 20.3963 133.922 20.8582C134.201 21.1636 134.44 21.5382 134.642 21.9818C134.843 21.6691 135.082 21.3854 135.365 21.12C135.724 20.7818 136.124 20.4945 136.565 20.2582C137.005 20.0218 137.464 19.8436 137.937 19.72C138.415 19.6 138.873 19.5382 139.314 19.5382Z" fill="#FF4E2B"/>
<path fill-rule="evenodd" clip-rule="evenodd" d="M158.017 20.2655C156.879 19.6364 155.58 19.3237 154.119 19.3237C152.659 19.3237 151.359 19.6364 150.222 20.2655C149.084 20.8946 148.188 21.7491 147.528 22.8328C146.867 23.9164 146.537 25.1528 146.537 26.5491C146.537 27.9455 146.867 29.1855 147.528 30.2655C148.188 31.3491 149.088 32.2037 150.222 32.8328C151.356 33.4619 152.655 33.7746 154.119 33.7746C155.584 33.7746 156.879 33.4582 158.017 32.8328C159.155 32.2037 160.047 31.3491 160.7 30.2655C161.353 29.1819 161.676 27.9455 161.676 26.5491C161.676 25.1528 161.35 23.9128 160.7 22.8328C160.047 21.7491 159.155 20.8946 158.017 20.2655ZM156.975 28.4073C156.692 28.9491 156.307 29.3746 155.811 29.6909C155.32 30.0037 154.754 30.1637 154.119 30.1637C153.485 30.1637 152.916 30.0073 152.416 29.6909C151.914 29.3782 151.521 28.9491 151.242 28.4073C150.959 27.8655 150.827 27.2473 150.846 26.5491C150.827 25.8509 150.959 25.2255 151.242 24.6764C151.525 24.1273 151.917 23.6946 152.416 23.3819C152.919 23.0655 153.488 22.9091 154.119 22.9091C154.751 22.9091 155.316 23.0655 155.811 23.3819C156.303 23.6946 156.692 24.1273 156.975 24.6764C157.257 25.2255 157.39 25.8509 157.371 26.5491C157.39 27.2473 157.257 27.8655 156.975 28.4073Z" fill="#FF4E2B"/>
<path d="M170.221 16.2909H170.224V19.8H172.948V23.4655H170.224V33.7018H165.996V23.4655H163.515V19.8H165.996V17.4146L170.221 16.2909Z" fill="#FF4E2B"/>
<path d="M189.621 28.7236L186.627 19.8H181.947L187.812 33.7018H191.145L197.3 19.8H192.675L189.621 28.7236Z" fill="#FF4E2B"/>
<path fill-rule="evenodd" clip-rule="evenodd" d="M207.873 19.8473C208.696 20.1964 209.404 20.6837 210.002 21.3128C210.6 21.9419 211.059 22.6837 211.375 23.5382C211.694 24.3928 211.834 25.3273 211.801 26.3382L211.771 27.4655H202.141C202.218 27.7709 202.335 28.0546 202.486 28.3164C202.809 28.8837 203.286 29.3237 203.91 29.6364C204.537 29.9528 205.282 30.1091 206.145 30.1091C206.743 30.1091 207.275 30.0219 207.741 29.8473C208.211 29.6728 208.718 29.3746 209.261 28.9564L211.243 31.7309C210.699 32.2037 210.116 32.5891 209.499 32.8837C208.883 33.1819 208.255 33.4037 207.609 33.5528C206.967 33.7019 206.328 33.7746 205.693 33.7746C204.144 33.7746 202.797 33.4655 201.652 32.8437C200.507 32.2255 199.615 31.3782 198.984 30.3055C198.349 29.2328 198.03 28.0073 198.03 26.6255C198.03 25.5637 198.206 24.5855 198.558 23.6946C198.911 22.8037 199.406 22.0328 200.041 21.3782C200.672 20.7237 201.428 20.2182 202.298 19.8582C203.172 19.5019 204.126 19.3237 205.165 19.3237C206.152 19.3237 207.055 19.4982 207.873 19.8473ZM202.126 25.1091H207.888V25.0837C207.851 24.6473 207.716 24.2582 207.477 23.9164C207.242 23.5782 206.926 23.3128 206.541 23.12C206.152 22.9273 205.712 22.8291 205.22 22.8291C204.534 22.8291 203.946 22.9673 203.462 23.2364C202.977 23.5055 202.61 23.8982 202.364 24.4146C202.265 24.6255 202.185 24.8582 202.126 25.1091Z" fill="#FF4E2B"/>
<path d="M100.09 18.4436C101.258 18.4436 102.204 17.5058 102.204 16.3491C102.204 15.1923 101.258 14.2545 100.09 14.2545C98.9227 14.2545 97.9762 15.1923 97.9762 16.3491C97.9762 17.5058 98.9227 18.4436 100.09 18.4436Z" fill="#FF4E2B"/>
<path d="M179.745 16.3491C179.745 17.5058 178.798 18.4436 177.631 18.4436C176.463 18.4436 175.517 17.5058 175.517 16.3491C175.517 15.1923 176.463 14.2545 177.631 14.2545C178.798 14.2545 179.745 15.1923 179.745 16.3491Z" fill="#FF4E2B"/>
<path d="M23.2502 25.7263C23.0783 25.5471 22.9723 25.3057 22.9723 25.0387C22.9649 24.4864 23.4477 24.0293 23.9963 24.0037H24.0402C29.6837 23.9817 34.2482 19.3989 34.2482 13.7518C34.2482 8.10473 29.8007 3.6463 24.2633 3.50366C24.2195 3.50366 24.1756 3.50275 24.1317 3.50183C24.0878 3.50092 24.0439 3.5 24 3.5C12.6765 3.5 3.5 12.6802 3.5 24C3.5 35.3198 12.6802 44.5 24 44.5C24.534 44.5 25.068 44.4781 25.5946 44.4378C27.3356 44.3062 28.111 42.1775 26.8747 40.9413C26.4944 40.5573 25.975 40.3378 25.4374 40.3378C25.3862 40.3378 25.3313 40.3378 25.2801 40.3451C24.8595 40.3817 24.4316 40.4 24 40.4C14.9442 40.4 7.60001 33.0558 7.60001 24C7.60001 14.9442 14.8088 7.73532 23.7513 7.6C27.2186 7.54879 30.1738 10.3175 30.1518 13.7848C30.1299 17.1642 27.3868 19.9 24 19.9C22.2152 19.9 20.6425 20.8107 19.7244 22.1969C19.1868 23.0052 18.8722 23.9781 18.8722 25.0277C18.8722 26.3993 19.4099 27.6428 20.2877 28.5645L32.6425 40.9194C33.3265 41.6033 34.3908 41.7057 35.2028 41.1754C35.2137 41.1681 35.2247 41.1607 35.2393 41.1534C35.2918 41.119 35.3421 41.0826 35.3902 41.0445C37.8685 39.3883 39.9445 37.2194 41.4867 34.699C41.5028 34.6747 41.5185 34.6501 41.5338 34.6249C43.4174 31.5234 44.5 27.8879 44.5 23.9964C44.5 20.5986 43.6734 17.3947 42.2068 14.5711V14.5748C42.1775 14.5126 42.1446 14.4504 42.1117 14.3919C42.108 14.3846 42.1044 14.3773 42.097 14.3663C41.7386 13.7738 41.0876 13.3788 40.3415 13.3788C39.204 13.3788 38.286 14.2968 38.286 15.4343C38.286 15.7854 38.3774 16.1219 38.5347 16.4108C39.7234 18.6784 40.4 21.2606 40.4 24C40.4 27.1052 39.5368 30.0092 38.0373 32.4853C38.0157 32.5207 37.9952 32.5565 37.9759 32.5927C36.9982 34.183 35.7545 35.5975 34.2966 36.7727L23.2502 25.7263Z" fill="#FF4E2B"/>
</svg>
