<svg xmlns="http://www.w3.org/2000/svg" version="1.1" width="100%" viewbox="0 0 245 245"
						style="shape-rendering:geometricPrecision; text-rendering:geometricPrecision; image-rendering:optimizeQuality; fill-rule:evenodd; clip-rule:evenodd"
						xmlns:xlink="http://www.w3.org/1999/xlink">
						<g>
							<path style="opacity:1" fill="#fefcfc"
								d="M -0.5,-0.5 C 48.8333,-0.5 98.1667,-0.5 147.5,-0.5C 145.54,14.5918 144.874,29.9252 145.5,45.5C 131.829,45.6666 118.163,45.4999 104.5,45C 96.2248,42.6164 93.7248,37.4498 97,29.5C 100.222,26.0686 104.222,24.7353 109,25.5C 114.451,24.9024 119.284,26.2358 123.5,29.5C 119.204,30.3275 114.871,30.8275 110.5,31C 107.833,33.6667 107.833,36.3333 110.5,39C 120.214,39.8073 129.881,39.6406 139.5,38.5C 140.992,32.9578 139.658,28.1244 135.5,24C 119.356,14.3945 103.023,14.0611 86.5,23C 85.0443,24.7448 83.711,26.5781 82.5,28.5C 75.0302,19.448 65.3636,15.448 53.5,16.5C 44.2386,16.0887 35.9052,18.5887 28.5,24C 26.6227,26.2513 25.1227,28.7513 24,31.5C 23.3333,45.5 23.3333,59.5 24,73.5C 28.6667,74.8333 33.3333,74.8333 38,73.5C 38.3333,60.5 38.6667,47.5 39,34.5C 41.6468,28.0884 46.4801,25.0884 53.5,25.5C 57.6303,25.6992 61.6303,26.5325 65.5,28C 72.1417,32.9014 72.1417,37.9014 65.5,43C 63.913,43.8624 62.2464,44.5291 60.5,45C 54.3524,45.821 48.3524,45.321 42.5,43.5C 40.2374,52.8255 43.7374,56.4922 53,54.5C 61.8789,54.86 70.0456,52.6933 77.5,48C 78.8804,46.0748 80.3804,44.2415 82,42.5C 85.901,49.2049 91.7343,53.0383 99.5,54C 108,54.1667 116.5,54.3333 125,54.5C 133.996,54.4716 142.829,53.805 151.5,52.5C 153.385,53.6094 155.385,54.4427 157.5,55C 174.833,55.6667 192.167,55.6667 209.5,55C 220.162,53.693 224.662,47.8597 223,37.5C 220.328,34.1596 216.828,32.3263 212.5,32C 201.833,31.6667 191.167,31.3333 180.5,31C 179.167,29.3333 179.167,27.6667 180.5,26C 193.833,25.6667 207.167,25.3333 220.5,25C 222.725,22.975 223.059,20.6417 221.5,18C 205.1,17.045 188.766,17.3783 172.5,19C 163.964,24.0871 163.298,30.0871 170.5,37C 172.087,37.8624 173.754,38.5291 175.5,39C 185.5,39.3333 195.5,39.6667 205.5,40C 208.629,40.1168 209.795,41.6168 209,44.5C 193.574,45.6571 178.074,45.8238 162.5,45C 162,44.5 161.5,44 161,43.5C 160.817,28.759 160.317,14.0923 159.5,-0.5C 189.5,-0.5 219.5,-0.5 249.5,-0.5C 249.5,57.8333 249.5,116.167 249.5,174.5C 247.833,174.5 246.167,174.5 244.5,174.5C 244.461,171.19 245.794,168.524 248.5,166.5C 247.833,166.167 247.167,165.833 246.5,165.5C 244.291,168.962 241.957,169.129 239.5,166C 233.804,165.17 228.137,165.337 222.5,166.5C 223.689,167.429 225.022,167.762 226.5,167.5C 226.5,169.833 226.5,172.167 226.5,174.5C 224.833,174.5 223.167,174.5 221.5,174.5C 221.672,173.508 221.338,172.842 220.5,172.5C 212.602,172.114 212.602,171.114 220.5,169.5C 218.577,168.692 216.577,168.192 214.5,168C 216.9,167.814 219.234,167.314 221.5,166.5C 218.232,165.513 214.898,165.18 211.5,165.5C 210.523,168.287 210.19,171.287 210.5,174.5C 209.833,174.5 209.167,174.5 208.5,174.5C 208.179,172.952 207.179,172.285 205.5,172.5C 205.5,170.833 205.5,169.167 205.5,167.5C 206.675,167.719 207.675,167.386 208.5,166.5C 205.5,165.167 202.5,165.167 199.5,166.5C 200.489,167.468 201.156,168.635 201.5,170C 200.926,171.607 200.26,173.107 199.5,174.5C 198.167,174.5 196.833,174.5 195.5,174.5C 196.739,173.788 197.239,172.788 197,171.5C 194.936,172.591 192.769,172.758 190.5,172C 189.167,170.667 189.167,169.333 190.5,168C 192.769,167.242 194.936,167.409 197,168.5C 197.483,167.552 197.649,166.552 197.5,165.5C 194.482,165.335 191.482,165.502 188.5,166C 184.446,169.34 184.779,172.174 189.5,174.5C 186.167,174.5 182.833,174.5 179.5,174.5C 183.144,173.595 184.311,171.262 183,167.5C 179.744,165.571 176.244,165.071 172.5,166C 168.424,169.291 168.758,172.124 173.5,174.5C 170.5,174.5 167.5,174.5 164.5,174.5C 166.042,173.859 167.376,172.859 168.5,171.5C 166.208,169.742 163.541,168.576 160.5,168C 162.9,167.814 165.234,167.314 167.5,166.5C 164.554,165.345 161.554,165.179 158.5,166C 156.408,166.953 156.075,168.286 157.5,170C 159.788,170.822 162.122,171.489 164.5,172C 161.325,171.947 158.658,172.78 156.5,174.5C 152.5,174.5 148.5,174.5 144.5,174.5C 145.209,173.596 146.209,173.263 147.5,173.5C 147.5,172.167 147.5,170.833 147.5,169.5C 136.85,168.503 136.85,167.503 147.5,166.5C 144.216,165.343 140.882,165.176 137.5,166C 136.483,167.049 136.316,168.216 137,169.5C 139.071,170.525 141.238,171.358 143.5,172C 141.101,172.711 138.768,172.544 136.5,171.5C 135.438,172.425 135.438,173.425 136.5,174.5C 135.167,174.5 133.833,174.5 132.5,174.5C 133.091,173.849 133.757,173.182 134.5,172.5C 134.167,172.167 133.833,171.833 133.5,171.5C 130.371,173.107 127.704,172.607 125.5,170C 125.645,169.228 125.978,168.561 126.5,168C 129.332,167.788 131.998,167.621 134.5,167.5C 131.096,165.027 127.43,164.861 123.5,167C 122.426,167.739 121.759,168.739 121.5,170C 122.43,172.435 124.097,173.935 126.5,174.5C 124.5,174.5 122.5,174.5 120.5,174.5C 120.179,172.952 119.179,172.285 117.5,172.5C 117.5,170.833 117.5,169.167 117.5,167.5C 118.675,167.719 119.675,167.386 120.5,166.5C 117.5,165.167 114.5,165.167 111.5,166.5C 112.489,167.468 113.156,168.635 113.5,170C 112.926,171.607 112.26,173.107 111.5,174.5C 110.5,174.5 109.5,174.5 108.5,174.5C 108.5,171.5 108.5,168.5 108.5,165.5C 107.5,165.5 106.5,165.5 105.5,165.5C 105.633,170.272 104.3,170.438 101.5,166C 99.8659,165.506 98.1992,165.34 96.5,165.5C 96.5,168.5 96.5,171.5 96.5,174.5C 94.1667,174.5 91.8333,174.5 89.5,174.5C 92.7639,173.306 93.9306,170.973 93,167.5C 88.6667,164.833 84.3333,164.833 80,167.5C 78.9164,170.659 79.7498,172.992 82.5,174.5C 81.1667,174.5 79.8333,174.5 78.5,174.5C 77.4264,173.115 76.0931,171.949 74.5,171C 76.4206,169.759 76.754,168.259 75.5,166.5C 71.9062,165.574 68.2396,165.241 64.5,165.5C 64.5,168.5 64.5,171.5 64.5,174.5C 62.5,174.5 60.5,174.5 58.5,174.5C 58.5,172.167 58.5,169.833 58.5,167.5C 59.9778,167.762 61.3112,167.429 62.5,166.5C 58.5,165.167 54.5,165.167 50.5,166.5C 51.6888,167.429 53.0222,167.762 54.5,167.5C 54.5,169.833 54.5,172.167 54.5,174.5C 52.1667,174.5 49.8333,174.5 47.5,174.5C 48.7387,173.788 49.2387,172.788 49,171.5C 46.9361,172.591 44.7695,172.758 42.5,172C 41.1667,170.667 41.1667,169.333 42.5,168C 44.7695,167.242 46.9361,167.409 49,168.5C 49.4828,167.552 49.6495,166.552 49.5,165.5C 45.6924,165.163 42.0257,165.663 38.5,167C 36.8397,170.223 37.5064,172.723 40.5,174.5C 38.8333,174.5 37.1667,174.5 35.5,174.5C 33.6283,172.938 31.2949,171.938 28.5,171.5C 36.4238,170.038 36.4238,168.871 28.5,168C 30.9005,167.814 33.2338,167.314 35.5,166.5C 32.2317,165.513 28.8984,165.18 25.5,165.5C 25.5,168.5 25.5,171.5 25.5,174.5C 24.8333,174.5 24.1667,174.5 23.5,174.5C 23.6716,173.508 23.3382,172.842 22.5,172.5C 20.5,172.5 18.5,172.5 16.5,172.5C 16.5,170.167 16.5,167.833 16.5,165.5C 15.5,165.5 14.5,165.5 13.5,165.5C 12.5233,168.287 12.19,171.287 12.5,174.5C 11.8333,174.5 11.1667,174.5 10.5,174.5C 10.6716,173.508 10.3382,172.842 9.5,172.5C 1.60192,172.114 1.60192,171.114 9.5,169.5C 7.5767,168.692 5.5767,168.192 3.5,168C 5.90049,167.814 8.23382,167.314 10.5,166.5C 7.23171,165.513 3.89838,165.18 0.5,165.5C 0.166667,165.5 -0.166667,165.5 -0.5,165.5C -0.5,110.167 -0.5,54.8333 -0.5,-0.5 Z" />
						</g>
						<g>
							<path style="opacity:1" fill="#cd183d"
								d="M 147.5,-0.5 C 151.5,-0.5 155.5,-0.5 159.5,-0.5C 160.317,14.0923 160.817,28.759 161,43.5C 161.5,44 162,44.5 162.5,45C 178.074,45.8238 193.574,45.6571 209,44.5C 209.795,41.6168 208.629,40.1168 205.5,40C 195.5,39.6667 185.5,39.3333 175.5,39C 173.754,38.5291 172.087,37.8624 170.5,37C 163.298,30.0871 163.964,24.0871 172.5,19C 188.766,17.3783 205.1,17.045 221.5,18C 223.059,20.6417 222.725,22.975 220.5,25C 207.167,25.3333 193.833,25.6667 180.5,26C 179.167,27.6667 179.167,29.3333 180.5,31C 191.167,31.3333 201.833,31.6667 212.5,32C 216.828,32.3263 220.328,34.1596 223,37.5C 224.662,47.8597 220.162,53.693 209.5,55C 192.167,55.6667 174.833,55.6667 157.5,55C 155.385,54.4427 153.385,53.6094 151.5,52.5C 142.829,53.805 133.996,54.4716 125,54.5C 116.5,54.3333 108,54.1667 99.5,54C 91.7343,53.0383 85.901,49.2049 82,42.5C 80.3804,44.2415 78.8804,46.0748 77.5,48C 70.0456,52.6933 61.8789,54.86 53,54.5C 43.7374,56.4922 40.2374,52.8255 42.5,43.5C 48.3524,45.321 54.3524,45.821 60.5,45C 62.2464,44.5291 63.913,43.8624 65.5,43C 72.1417,37.9014 72.1417,32.9014 65.5,28C 61.6303,26.5325 57.6303,25.6992 53.5,25.5C 46.4801,25.0884 41.6468,28.0884 39,34.5C 38.6667,47.5 38.3333,60.5 38,73.5C 33.3333,74.8333 28.6667,74.8333 24,73.5C 23.3333,59.5 23.3333,45.5 24,31.5C 25.1227,28.7513 26.6227,26.2513 28.5,24C 35.9052,18.5887 44.2386,16.0887 53.5,16.5C 65.3636,15.448 75.0302,19.448 82.5,28.5C 83.711,26.5781 85.0443,24.7448 86.5,23C 103.023,14.0611 119.356,14.3945 135.5,24C 139.658,28.1244 140.992,32.9578 139.5,38.5C 129.881,39.6406 120.214,39.8073 110.5,39C 107.833,36.3333 107.833,33.6667 110.5,31C 114.871,30.8275 119.204,30.3275 123.5,29.5C 119.284,26.2358 114.451,24.9024 109,25.5C 104.222,24.7353 100.222,26.0686 97,29.5C 93.7248,37.4498 96.2248,42.6164 104.5,45C 118.163,45.4999 131.829,45.6666 145.5,45.5C 144.874,29.9252 145.54,14.5918 147.5,-0.5 Z" />
						</g>
						<g>
							<path style="opacity:1" fill="#c50121"
								d="M 210.5,59.5 C 155.097,59.1691 99.4301,59.5024 43.5,60.5C 43.6107,59.8826 43.944,59.3826 44.5,59C 100.002,58.1682 155.335,58.3348 210.5,59.5 Z" />
						</g>
						<g>
							<path style="opacity:1" fill="#ce1a3f"
								d="M 210.5,59.5 C 212.002,61.8629 211.668,64.0295 209.5,66C 184.5,66.3333 159.5,66.6667 134.5,67C 148.062,80.7291 161.728,94.2291 175.5,107.5C 168.733,108.132 162.067,108.799 155.5,109.5C 155.666,117.174 155.5,124.841 155,132.5C 148.667,133.833 142.333,133.833 136,132.5C 135.5,117.837 135.333,103.17 135.5,88.5C 125.675,87.3417 115.675,87.1751 105.5,88C 104.521,94.7445 104.188,101.578 104.5,108.5C 95.8333,108.5 87.1667,108.5 78.5,108.5C 92.4793,94.8546 106.479,81.1879 120.5,67.5C 95.1732,66.6668 69.8399,66.1668 44.5,66C 43.5939,64.3005 43.2606,62.4672 43.5,60.5C 99.4301,59.5024 155.097,59.1691 210.5,59.5 Z" />
						</g>
						<g>
							<path style="opacity:1" fill="#fdf7f8"
								d="M 135.5,88.5 C 135.333,103.17 135.5,117.837 136,132.5C 142.333,133.833 148.667,133.833 155,132.5C 155.5,124.841 155.666,117.174 155.5,109.5C 173.167,109.5 190.833,109.5 208.5,109.5C 208.5,110.833 208.5,112.167 208.5,113.5C 200.167,113.5 191.833,113.5 183.5,113.5C 176.167,113.5 168.833,113.5 161.5,113.5C 161.815,121.42 161.482,129.253 160.5,137C 150.5,137.667 140.5,137.667 130.5,137C 129.675,122.575 129.175,108.075 129,93.5C 123.593,92.5268 118.093,92.1934 112.5,92.5C 112.5,99.5 112.5,106.5 112.5,113.5C 98.5,113.5 84.5,113.5 70.5,113.5C 62.1667,113.5 53.8333,113.5 45.5,113.5C 45.33,112.178 45.6634,111.011 46.5,110C 66.1638,109.5 85.8305,109.333 105.5,109.5C 105.188,102.578 105.521,95.7445 106.5,89C 116.161,88.5002 125.828,88.3335 135.5,88.5 Z" />
						</g>
						<g>
							<path style="opacity:1" fill="#cd143c"
								d="M 183.5,113.5 C 183.5,113.833 183.5,114.167 183.5,114.5C 192.495,124.328 201.995,133.661 212,142.5C 212.483,143.448 212.649,144.448 212.5,145.5C 155.833,145.5 99.1667,145.5 42.5,145.5C 42.3505,144.448 42.5172,143.448 43,142.5C 52.7327,132.941 61.8993,123.608 70.5,114.5C 70.5,114.167 70.5,113.833 70.5,113.5C 84.5,113.5 98.5,113.5 112.5,113.5C 112.5,106.5 112.5,99.5 112.5,92.5C 118.093,92.1934 123.593,92.5268 129,93.5C 129.175,108.075 129.675,122.575 130.5,137C 140.5,137.667 150.5,137.667 160.5,137C 161.482,129.253 161.815,121.42 161.5,113.5C 168.833,113.5 176.167,113.5 183.5,113.5 Z" />
						</g>
						<g>
							<path style="opacity:1" fill="#c3021f"
								d="M 135.5,88.5 C 125.828,88.3335 116.161,88.5002 106.5,89C 105.521,95.7445 105.188,102.578 105.5,109.5C 85.8305,109.333 66.1638,109.5 46.5,110C 45.6634,111.011 45.33,112.178 45.5,113.5C 53.8333,113.5 62.1667,113.5 70.5,113.5C 70.5,113.833 70.5,114.167 70.5,114.5C 61.8269,114.666 53.1603,114.5 44.5,114C 43.1667,112.333 43.1667,110.667 44.5,109C 55.8284,108.5 67.1618,108.333 78.5,108.5C 87.1667,108.5 95.8333,108.5 104.5,108.5C 104.188,101.578 104.521,94.7445 105.5,88C 115.675,87.1751 125.675,87.3417 135.5,88.5 Z" />
						</g>
						<g>
							<path style="opacity:1" fill="#c2051d"
								d="M 175.5,107.5 C 186.758,108.312 198.091,108.812 209.5,109C 210.833,110.667 210.833,112.333 209.5,114C 200.84,114.5 192.173,114.666 183.5,114.5C 183.5,114.167 183.5,113.833 183.5,113.5C 191.833,113.5 200.167,113.5 208.5,113.5C 208.5,112.167 208.5,110.833 208.5,109.5C 190.833,109.5 173.167,109.5 155.5,109.5C 162.067,108.799 168.733,108.132 175.5,107.5 Z" />
						</g>
						<g>
							<path style="opacity:1" fill="#e999ab"
								d="M 84.5,153.5 C 86.2922,152.691 88.2922,152.191 90.5,152C 87.5184,151.502 84.5184,151.335 81.5,151.5C 81.5,154.167 81.5,156.833 81.5,159.5C 84.8333,159.5 88.1667,159.5 91.5,159.5C 88.0381,160.482 84.3714,160.815 80.5,160.5C 80.5,157.167 80.5,153.833 80.5,150.5C 84.1667,150.5 87.8333,150.5 91.5,150.5C 91.5,151.5 91.5,152.5 91.5,153.5C 89.1667,153.5 86.8333,153.5 84.5,153.5 Z" />
						</g>
						<g>
							<path style="opacity:1" fill="#c50926"
								d="M 56.5,152.5 C 60.9187,151.082 62.9187,151.082 62.5,152.5C 62.5,154.5 62.5,156.5 62.5,158.5C 61.5,159.833 60.5,159.833 59.5,158.5C 59.5,156.5 59.5,154.5 59.5,152.5C 58.5,152.5 57.5,152.5 56.5,152.5 Z" />
						</g>
						<g>
							<path style="opacity:1" fill="#e5869b"
								d="M 77.5,151.5 C 74.5,151.5 71.5,151.5 68.5,151.5C 68.5,154.167 68.5,156.833 68.5,159.5C 71.5,159.5 74.5,159.5 77.5,159.5C 74.3752,160.479 71.0419,160.813 67.5,160.5C 67.5,157.167 67.5,153.833 67.5,150.5C 71.0419,150.187 74.3752,150.521 77.5,151.5 Z" />
						</g>
						<g>
							<path style="opacity:1" fill="#c81a2e"
								d="M 77.5,151.5 C 76.2592,152.284 74.2592,152.951 71.5,153.5C 79.5,154.833 79.5,156.167 71.5,157.5C 74.2592,158.049 76.2592,158.716 77.5,159.5C 74.5,159.5 71.5,159.5 68.5,159.5C 68.5,156.833 68.5,154.167 68.5,151.5C 71.5,151.5 74.5,151.5 77.5,151.5 Z" />
						</g>
						<g>
							<path style="opacity:1" fill="#d03544"
								d="M 131.5,150.5 C 135.115,150.206 138.282,151.206 141,153.5C 141.473,158.362 139.14,160.695 134,160.5C 128.86,160.695 126.527,158.362 127,153.5C 128.409,152.219 129.909,151.219 131.5,150.5 Z" />
						</g>
						<g>
							<path style="opacity:1" fill="#fceff2"
								d="M 132.5,152.5 C 136.527,152.26 137.861,153.926 136.5,157.5C 134.356,158.953 132.523,158.62 131,156.5C 130.7,154.934 131.2,153.601 132.5,152.5 Z" />
						</g>
						<g>
							<path style="opacity:1" fill="#c91e30"
								d="M 175.5,152.5 C 173.076,152.192 170.743,152.526 168.5,153.5C 168.624,154.107 168.957,154.44 169.5,154.5C 171.604,154.201 173.604,154.534 175.5,155.5C 166.234,156.972 166.234,158.138 175.5,159C 172.183,159.498 168.85,159.665 165.5,159.5C 165.5,156.833 165.5,154.167 165.5,151.5C 169.042,151.187 172.375,151.521 175.5,152.5 Z" />
						</g>
						<g>
							<path style="opacity:1" fill="#eda9b8"
								d="M 175.5,152.5 C 173.5,153.167 171.5,153.833 169.5,154.5C 168.957,154.44 168.624,154.107 168.5,153.5C 170.743,152.526 173.076,152.192 175.5,152.5 Z" />
						</g>
						<g>
							<path style="opacity:1" fill="#cc1f39"
								d="M 113.5,151.5 C 117.182,151.335 120.848,151.501 124.5,152C 125.727,153.587 125.394,154.921 123.5,156C 120.236,157.47 116.903,158.637 113.5,159.5C 113.5,156.833 113.5,154.167 113.5,151.5 Z" />
						</g>
						<g>
							<path style="opacity:1" fill="#fae6ea"
								d="M 117.5,152.5 C 122.833,153.5 122.833,154.5 117.5,155.5C 117.5,154.5 117.5,153.5 117.5,152.5 Z" />
						</g>
						<g>
							<path style="opacity:1" fill="#ce313e"
								d="M 93.5,151.5 C 97.1817,151.335 100.848,151.501 104.5,152C 96.0582,152.608 95.7249,153.774 103.5,155.5C 95.7249,157.226 96.0582,158.392 104.5,159C 100.848,159.499 97.1817,159.665 93.5,159.5C 93.5,156.833 93.5,154.167 93.5,151.5 Z" />
						</g>
						<g>
							<path style="opacity:1" fill="#c9152f"
								d="M 178.5,151.5 C 182.437,151.207 186.27,151.54 190,152.5C 190.448,154.409 189.615,155.576 187.5,156C 191.787,158.916 191.454,159.916 186.5,159C 184.307,155.676 182.974,155.843 182.5,159.5C 181.167,159.5 179.833,159.5 178.5,159.5C 178.5,156.833 178.5,154.167 178.5,151.5 Z" />
						</g>
						<g>
							<path style="opacity:1" fill="#eea4b2"
								d="M 181.5,152.5 C 188.167,153.5 188.167,154.5 181.5,155.5C 181.5,154.5 181.5,153.5 181.5,152.5 Z" />
						</g>
						<g>
							<path style="opacity:1" fill="#ce2940"
								d="M 142.5,150.5 C 143.873,150.343 145.207,150.51 146.5,151C 147.11,152.947 147.943,154.781 149,156.5C 151.06,150.4 153.726,150.067 157,155.5C 157.956,154.421 158.789,153.255 159.5,152C 160.635,151.251 161.635,151.417 162.5,152.5C 162.126,157.656 159.459,159.99 154.5,159.5C 153.5,154.167 152.5,154.167 151.5,159.5C 149.801,159.66 148.134,159.494 146.5,159C 144.754,156.341 143.42,153.508 142.5,150.5 Z" />
						</g>
						<g>
							<path style="opacity:1" fill="#c61427"
								d="M 84.5,153.5 C 86.3691,154.165 88.3691,154.831 90.5,155.5C 88.5,156.167 86.5,156.833 84.5,157.5C 86.9688,158.168 89.3021,158.835 91.5,159.5C 88.1667,159.5 84.8333,159.5 81.5,159.5C 81.5,156.833 81.5,154.167 81.5,151.5C 84.5184,151.335 87.5184,151.502 90.5,152C 88.2922,152.191 86.2922,152.691 84.5,153.5 Z" />
						</g>
						<g>
							<path style="opacity:1" fill="#ca0c33"
								d="M 13.5,165.5 C 14.5,165.5 15.5,165.5 16.5,165.5C 16.5,167.833 16.5,170.167 16.5,172.5C 18.5,172.5 20.5,172.5 22.5,172.5C 19.7131,173.477 16.7131,173.81 13.5,173.5C 13.5,170.833 13.5,168.167 13.5,165.5 Z" />
						</g>
						<g>
							<path style="opacity:1" fill="#ce2640"
								d="M 58.5,174.5 C 57.1667,174.5 55.8333,174.5 54.5,174.5C 54.5,172.167 54.5,169.833 54.5,167.5C 53.0222,167.762 51.6888,167.429 50.5,166.5C 54.5,165.167 58.5,165.167 62.5,166.5C 61.3112,167.429 59.9778,167.762 58.5,167.5C 58.5,169.833 58.5,172.167 58.5,174.5 Z" />
						</g>
						<g>
							<path style="opacity:1" fill="#d13448"
								d="M 120.5,174.5 C 117.5,174.5 114.5,174.5 111.5,174.5C 112.26,173.107 112.926,171.607 113.5,170C 113.156,168.635 112.489,167.468 111.5,166.5C 114.5,165.167 117.5,165.167 120.5,166.5C 119.675,167.386 118.675,167.719 117.5,167.5C 117.5,169.167 117.5,170.833 117.5,172.5C 119.179,172.285 120.179,172.952 120.5,174.5 Z" />
						</g>
						<g>
							<path style="opacity:1" fill="#ca2034"
								d="M 195.5,174.5 C 193.5,174.5 191.5,174.5 189.5,174.5C 184.779,172.174 184.446,169.34 188.5,166C 191.482,165.502 194.482,165.335 197.5,165.5C 197.649,166.552 197.483,167.552 197,168.5C 194.936,167.409 192.769,167.242 190.5,168C 189.167,169.333 189.167,170.667 190.5,172C 192.769,172.758 194.936,172.591 197,171.5C 197.239,172.788 196.739,173.788 195.5,174.5 Z" />
						</g>
						<g>
							<path style="opacity:1" fill="#d2394c"
								d="M 208.5,174.5 C 205.5,174.5 202.5,174.5 199.5,174.5C 200.26,173.107 200.926,171.607 201.5,170C 201.156,168.635 200.489,167.468 199.5,166.5C 202.5,165.167 205.5,165.167 208.5,166.5C 207.675,167.386 206.675,167.719 205.5,167.5C 205.5,169.167 205.5,170.833 205.5,172.5C 207.179,172.285 208.179,172.952 208.5,174.5 Z" />
						</g>
						<g>
							<path style="opacity:1" fill="#ca1935"
								d="M 35.5,174.5 C 32.1667,174.5 28.8333,174.5 25.5,174.5C 25.5,171.5 25.5,168.5 25.5,165.5C 28.8984,165.18 32.2317,165.513 35.5,166.5C 33.2338,167.314 30.9005,167.814 28.5,168C 36.4238,168.871 36.4238,170.038 28.5,171.5C 31.2949,171.938 33.6283,172.938 35.5,174.5 Z" />
						</g>
						<g>
							<path style="opacity:1" fill="#c91431"
								d="M 211.5,165.5 C 214.898,165.18 218.232,165.513 221.5,166.5C 219.234,167.314 216.9,167.814 214.5,168C 216.577,168.192 218.577,168.692 220.5,169.5C 212.602,171.114 212.602,172.114 220.5,172.5C 217.713,173.477 214.713,173.81 211.5,173.5C 211.5,170.833 211.5,168.167 211.5,165.5 Z" />
						</g>
						<g>
							<path style="opacity:1" fill="#cb1a37"
								d="M 0.5,165.5 C 3.89838,165.18 7.23171,165.513 10.5,166.5C 8.23382,167.314 5.90049,167.814 3.5,168C 5.5767,168.192 7.5767,168.692 9.5,169.5C 1.60192,171.114 1.60192,172.114 9.5,172.5C 6.7131,173.477 3.7131,173.81 0.5,173.5C 0.5,170.833 0.5,168.167 0.5,165.5 Z" />
						</g>
						<g>
							<path style="opacity:1" fill="#cd273d"
								d="M 132.5,174.5 C 130.5,174.5 128.5,174.5 126.5,174.5C 124.097,173.935 122.43,172.435 121.5,170C 121.759,168.739 122.426,167.739 123.5,167C 127.43,164.861 131.096,165.027 134.5,167.5C 131.998,167.621 129.332,167.788 126.5,168C 125.978,168.561 125.645,169.228 125.5,170C 127.704,172.607 130.371,173.107 133.5,171.5C 133.833,171.833 134.167,172.167 134.5,172.5C 133.757,173.182 133.091,173.849 132.5,174.5 Z" />
						</g>
						<g>
							<path style="opacity:1" fill="#ce283e"
								d="M 47.5,174.5 C 45.1667,174.5 42.8333,174.5 40.5,174.5C 37.5064,172.723 36.8397,170.223 38.5,167C 42.0257,165.663 45.6924,165.163 49.5,165.5C 49.6495,166.552 49.4828,167.552 49,168.5C 46.9361,167.409 44.7695,167.242 42.5,168C 41.1667,169.333 41.1667,170.667 42.5,172C 44.7695,172.758 46.9361,172.591 49,171.5C 49.2387,172.788 48.7387,173.788 47.5,174.5 Z" />
						</g>
						<g>
							<path style="opacity:1" fill="#ce283e"
								d="M 78.5,174.5 C 76.8333,174.5 75.1667,174.5 73.5,174.5C 72.5994,172.273 70.9328,171.273 68.5,171.5C 68.5,172.5 68.5,173.5 68.5,174.5C 67.1667,174.5 65.8333,174.5 64.5,174.5C 64.5,171.5 64.5,168.5 64.5,165.5C 68.2396,165.241 71.9062,165.574 75.5,166.5C 76.754,168.259 76.4206,169.759 74.5,171C 76.0931,171.949 77.4264,173.115 78.5,174.5 Z" />
						</g>
						<g>
							<path style="opacity:1" fill="#fdf7f8"
								d="M 68.5,167.5 C 69.9778,167.238 71.3112,167.571 72.5,168.5C 71.8333,168.833 71.1667,169.167 70.5,169.5C 69.2867,169.253 68.62,168.586 68.5,167.5 Z" />
						</g>
						<g>
							<path style="opacity:1" fill="#cb1a37"
								d="M 108.5,174.5 C 107.5,174.5 106.5,174.5 105.5,174.5C 103.873,172.37 102.04,170.37 100,168.5C 99.5045,170.473 99.3379,172.473 99.5,174.5C 98.5,174.5 97.5,174.5 96.5,174.5C 96.5,171.5 96.5,168.5 96.5,165.5C 98.1992,165.34 99.8659,165.506 101.5,166C 104.3,170.438 105.633,170.272 105.5,165.5C 106.5,165.5 107.5,165.5 108.5,165.5C 108.5,168.5 108.5,171.5 108.5,174.5 Z" />
						</g>
						<g>
							<path style="opacity:1" fill="#fbe9ed"
								d="M 105.5,174.5 C 103.5,174.5 101.5,174.5 99.5,174.5C 99.3379,172.473 99.5045,170.473 100,168.5C 102.04,170.37 103.873,172.37 105.5,174.5 Z" />
						</g>
						<g>
							<path style="opacity:1" fill="#ce2f3f"
								d="M 164.5,174.5 C 161.833,174.5 159.167,174.5 156.5,174.5C 158.658,172.78 161.325,171.947 164.5,172C 162.122,171.489 159.788,170.822 157.5,170C 156.075,168.286 156.408,166.953 158.5,166C 161.554,165.179 164.554,165.345 167.5,166.5C 165.234,167.314 162.9,167.814 160.5,168C 163.541,168.576 166.208,169.742 168.5,171.5C 167.376,172.859 166.042,173.859 164.5,174.5 Z" />
						</g>
						<g>
							<path style="opacity:1" fill="#ca1834"
								d="M 179.5,174.5 C 177.5,174.5 175.5,174.5 173.5,174.5C 168.758,172.124 168.424,169.291 172.5,166C 176.244,165.071 179.744,165.571 183,167.5C 184.311,171.262 183.144,173.595 179.5,174.5 Z" />
						</g>
						<g>
							<path style="opacity:1" fill="#fdf5f7"
								d="M 174.5,167.5 C 176.199,167.34 177.866,167.506 179.5,168C 180.517,169.049 180.684,170.216 180,171.5C 175.085,173.679 173.251,172.346 174.5,167.5 Z" />
						</g>
						<g>
							<path style="opacity:1" fill="#cd233c"
								d="M 244.5,174.5 C 243.167,174.5 241.833,174.5 240.5,174.5C 239.79,168.096 236.457,165.762 230.5,167.5C 230.5,169.833 230.5,172.167 230.5,174.5C 229.167,174.5 227.833,174.5 226.5,174.5C 226.5,172.167 226.5,169.833 226.5,167.5C 225.022,167.762 223.689,167.429 222.5,166.5C 228.137,165.337 233.804,165.17 239.5,166C 241.957,169.129 244.291,168.962 246.5,165.5C 247.167,165.833 247.833,166.167 248.5,166.5C 245.794,168.524 244.461,171.19 244.5,174.5 Z" />
						</g>
						<g>
							<path style="opacity:1" fill="#fefbfc"
								d="M 240.5,174.5 C 237.167,174.5 233.833,174.5 230.5,174.5C 230.5,172.167 230.5,169.833 230.5,167.5C 236.457,165.762 239.79,168.096 240.5,174.5 Z" />
						</g>
						<g>
							<path style="opacity:1" fill="#fcf5f6"
								d="M 73.5,174.5 C 71.8333,174.5 70.1667,174.5 68.5,174.5C 68.5,173.5 68.5,172.5 68.5,171.5C 70.9328,171.273 72.5994,172.273 73.5,174.5 Z" />
						</g>
						<g>
							<path style="opacity:1" fill="#cc2037"
								d="M 89.5,174.5 C 87.1667,174.5 84.8333,174.5 82.5,174.5C 79.7498,172.992 78.9164,170.659 80,167.5C 84.3333,164.833 88.6667,164.833 93,167.5C 93.9306,170.973 92.7639,173.306 89.5,174.5 Z" />
						</g>
						<g>
							<path style="opacity:1" fill="#fdf1f3"
								d="M 83.5,167.5 C 85.1992,167.34 86.8659,167.506 88.5,168C 89.5171,169.049 89.6838,170.216 89,171.5C 84.0848,173.679 82.2515,172.346 83.5,167.5 Z" />
						</g>
						<g>
							<path style="opacity:1" fill="#da5671"
								d="M -0.5,165.5 C -0.166667,165.5 0.166667,165.5 0.5,165.5C 0.5,168.167 0.5,170.833 0.5,173.5C 3.7131,173.81 6.7131,173.477 9.5,172.5C 10.3382,172.842 10.6716,173.508 10.5,174.5C 6.83333,174.5 3.16667,174.5 -0.5,174.5C -0.5,171.5 -0.5,168.5 -0.5,165.5 Z" />
						</g>
						<g>
							<path style="opacity:1" fill="#d9516d"
								d="M 13.5,165.5 C 13.5,168.167 13.5,170.833 13.5,173.5C 16.7131,173.81 19.7131,173.477 22.5,172.5C 23.3382,172.842 23.6716,173.508 23.5,174.5C 19.8333,174.5 16.1667,174.5 12.5,174.5C 12.19,171.287 12.5233,168.287 13.5,165.5 Z" />
						</g>
						<g>
							<path style="opacity:1" fill="#ce2c3e"
								d="M 144.5,174.5 C 141.833,174.5 139.167,174.5 136.5,174.5C 135.438,173.425 135.438,172.425 136.5,171.5C 138.768,172.544 141.101,172.711 143.5,172C 141.238,171.358 139.071,170.525 137,169.5C 136.316,168.216 136.483,167.049 137.5,166C 140.882,165.176 144.216,165.343 147.5,166.5C 136.85,167.503 136.85,168.503 147.5,169.5C 147.5,170.833 147.5,172.167 147.5,173.5C 146.209,173.263 145.209,173.596 144.5,174.5 Z" />
						</g>
						<g>
							<path style="opacity:1" fill="#da5772"
								d="M 211.5,165.5 C 211.5,168.167 211.5,170.833 211.5,173.5C 214.713,173.81 217.713,173.477 220.5,172.5C 221.338,172.842 221.672,173.508 221.5,174.5C 217.833,174.5 214.167,174.5 210.5,174.5C 210.19,171.287 210.523,168.287 211.5,165.5 Z" />
						</g>
					</svg>
