<?xml version="1.0" encoding="UTF-8" standalone="no"?>
<!-- Created with Inkscape (http://www.inkscape.org/) -->

<svg
   version="1.1"
   id="svg2"
   width="365.22668"
   height="407.58667"
   viewBox="0 0 365.22668 407.58667"
   sodipodi:docname="IEEE PELS Logo.eps"
   xmlns:inkscape="http://www.inkscape.org/namespaces/inkscape"
   xmlns:sodipodi="http://sodipodi.sourceforge.net/DTD/sodipodi-0.dtd"
   xmlns="http://www.w3.org/2000/svg"
   xmlns:svg="http://www.w3.org/2000/svg">
  <defs
     id="defs6" />
  <sodipodi:namedview
     id="namedview4"
     pagecolor="#ffffff"
     bordercolor="#000000"
     borderopacity="0.25"
     inkscape:showpageshadow="2"
     inkscape:pageopacity="0.0"
     inkscape:pagecheckerboard="0"
     inkscape:deskcolor="#d1d1d1" />
  <g
     id="g8"
     inkscape:groupmode="layer"
     inkscape:label="ink_ext_XXXXXX"
     transform="matrix(1.3333333,0,0,-1.3333333,0,407.58667)">
    <g
       id="g10"
       transform="scale(0.1)">
      <path
         d="m 1362.27,2524.34 c -35.58,97.01 -178.41,86.23 -178.41,86.23 -148.75,-1.08 -135.82,-196.19 -135.82,-196.19 -2.15,-169.24 187.57,-161.69 187.57,-161.69 h 368.67 v 51.74 l 0.53,700.14 c -3.23,58.21 50.12,51.74 50.12,51.74 l 69.53,0.54 c 43.12,0 41.51,-52.28 41.51,-52.28 v -691.52 c 0,-75.46 58.21,-66.82 58.21,-66.82 h 407.48 c 73.28,0 73.28,49.57 73.28,49.57 0,61.99 -73.28,56.06 -73.28,56.06 h -209.13 c -215.6,0 -202.67,194.03 -202.67,194.03 0,204.82 172.48,196.2 172.48,196.2 h 408 c 45.29,0 40.43,-43.12 40.43,-43.12 v -46.89 c 0,-50.13 -40.95,-45.82 -40.95,-45.82 h -379.46 c -56.05,0 -53.89,-51.74 -53.89,-51.74 0,-58.21 49.58,-60.36 49.58,-60.36 h 260.87 c 211.3,0 181.11,-191.89 181.11,-191.89 0,-204.81 -196.2,-219.9 -196.2,-219.9 h -459.2 c -122.9,0 -146.62,68.99 -146.62,68.99 v -53.9 H 1196.8 c -247.929,0 -280.269,189.72 -280.269,189.72 -11.316,50.67 -30.183,-6.47 -30.183,-6.47 -99.176,-250.09 -388.071,-172.47 -388.071,-172.47 -28.027,5.93 -30.179,28.03 -30.179,28.03 v 137.98 c 0,36.64 31.8,12.4 31.8,12.4 44.735,-44.74 127.739,-31.81 127.739,-31.81 135.82,9.71 150.914,168.16 150.914,168.16 5.387,188.65 -196.192,178.95 -196.192,178.95 -153.066,-8.63 -155.226,-191.88 -155.226,-191.88 v -625.22 c 0,-38.82 -34.492,-38.82 -34.492,-38.82 h -92.703 c -47.442,0 -38.809,38.82 -38.809,38.82 v 491.56 c 0,79.77 -2.149,129.35 -2.149,129.35 6.469,379.44 338.469,355.74 338.469,355.74 260.871,0 312.614,-224.23 312.614,-224.23 35.566,223.14 295.357,217.76 295.357,217.76 360.04,2.15 338.49,-347.11 338.49,-347.11 0,-43.13 -36.65,-45.28 -36.65,-45.28 h -275.7 c -29.9,0 -33.68,31.54 -33.68,31.54 v 71.95 c 0,40.42 37.73,40.96 37.73,40.96 h 113.72 c 0,0 18.93,0.89 12.94,17.25"
         style="fill:#cf123c;fill-opacity:1;fill-rule:nonzero;stroke:none"
         id="path12" />
      <path
         d="m 1792.92,1062.62 h 479.23 c 11.56,0 20.95,9.38 20.95,20.95 v 29.24 c 0,11.56 -6.48,19.88 -17.71,20.97 h -546.07 l -4.05,-0.28 c -15.77,0 -22.9,-11.35 -22.9,-22.91 V 747.309 c 0,-23.2 -22.64,-23.161 -22.64,-23.161 h -169.24 c 0,0 -18.34,-2.179 -18.34,16.133 v 741.179 c 0,11.6 -9.37,20.97 -20.95,20.97 h -286.86 c -11.57,0 -20.96,-9.39 -20.96,-20.97 v -329.91 c 0,-17.78 -17.38,-17.78 -17.38,-17.78 H 524.625 c -11.578,0 -20.957,-9.4 -20.957,-20.96 v -29.24 c 0,-11.57 9.379,-20.95 20.957,-20.95 h 574.075 114.87 c 11.58,0 20.96,9.37 20.96,20.95 v 326.69 c 0,0 0.81,14.55 15.76,14.55 h 156.05 c 0,0 14.67,-2.02 14.67,-18.19 V 675.031 c 0,-11.57 9.39,-20.961 20.97,-20.961 l 71.74,-1.082 h 238.82 c 11.58,0 20.97,8.223 20.97,24.383 l 0.01,86.641 V 1044.3 c 0,0 2.15,18.32 19.4,18.32 z m 530.29,-500.671 c 0,0 43.04,-60.859 -27.97,-60.859 H 493.965 c 0,0 -57.836,5.051 -12.172,71.012 L 788.246,1046.44 H 506.641 c -14.141,0 -25.61,11.48 -25.61,25.63 v 55.48 c 0,14.15 11.469,25.61 25.61,25.61 h 355.988 l 461.241,712.5 c 0,0 20.3,25.37 -20.29,25.37 H 516.605 c 0,0 -34.812,0 -34.812,35.51 v 64.21 c 0,0 -10.145,37.24 45.652,37.24 H 2287.71 c 0,0 35.5,-6.36 35.5,-46.95 v -53.9 c 0,0 -2.79,-38.8 -48.43,-38.8 -45.67,0 -780.59,3.45 -780.59,3.45 0,0 -36.52,5.17 -7.98,-36.27 l 453.31,-702.36 h 346.27 c 14.15,0 25.63,-11.46 25.63,-25.61 v -55.48 c 0,-14.15 -11.48,-25.63 -25.63,-25.63 h -275.13 l 312.55,-484.491"
         style="fill:#cf123c;fill-opacity:1;fill-rule:nonzero;stroke:none"
         id="path14" />
      <path
         d="M 715.414,255.18 H 626 v 27.082 h 25.02 v 98.527 H 626 v 27.07 h 89.414 v -27.07 h -25.019 v -98.527 h 25.019 V 255.18"
         style="fill:#cf123c;fill-opacity:1;fill-rule:nonzero;stroke:none"
         id="path16" />
      <path
         d="M 857.945,255.18 H 747.512 V 407.859 H 857.945 V 378.332 H 786.68 V 351.98 h 66.136 V 322.449 H 786.68 v -37.73 h 71.265 V 255.18"
         style="fill:#cf123c;fill-opacity:1;fill-rule:nonzero;stroke:none"
         id="path18" />
      <path
         d="M 1001.4,255.18 H 890.961 V 407.859 H 1001.4 V 378.332 H 930.133 V 351.98 h 66.137 v -29.531 h -66.137 v -37.73 H 1001.4 V 255.18"
         style="fill:#cf123c;fill-opacity:1;fill-rule:nonzero;stroke:none"
         id="path20" />
      <path
         d="m 1144.85,255.18 h -110.44 v 152.679 h 110.44 v -29.527 h -71.27 V 351.98 h 66.14 v -29.531 h -66.14 v -37.73 h 71.27 V 255.18"
         style="fill:#cf123c;fill-opacity:1;fill-rule:nonzero;stroke:none"
         id="path22" />
      <path
         d="m 1334.96,358.801 c 0,4.301 -1.17,8 -3.49,11.09 -2.32,3.109 -5.02,5.281 -8.1,6.507 -4.1,1.633 -8.1,2.532 -12,2.704 -3.89,0.179 -9.09,0.257 -15.58,0.257 h -6.77 V 333.73 h 11.28 c 6.7,0 12.21,0.411 16.56,1.231 4.34,0.82 7.98,2.449 10.92,4.91 2.53,2.18 4.35,4.789 5.49,7.82 1.12,3.039 1.69,6.739 1.69,11.11 z m 40.7,0.879 c 0,-6.848 -1.19,-13.532 -3.59,-20.051 -2.39,-6.527 -5.81,-12.02 -10.25,-16.457 -6.08,-6.024 -12.87,-10.563 -20.35,-13.641 -7.49,-3.082 -16.8,-4.621 -27.94,-4.621 h -24.51 v -49.73 h -39.38 v 152.679 h 64.81 c 9.71,0 17.89,-0.828 24.56,-2.507 6.66,-1.672 12.56,-4.192 17.68,-7.532 6.16,-4.039 10.85,-9.199 14.11,-15.488 3.24,-6.293 4.86,-13.84 4.86,-22.652"
         style="fill:#cf123c;fill-opacity:1;fill-rule:nonzero;stroke:none"
         id="path24" />
      <path
         d="m 1499.83,292.82 c 3.83,4.641 6.67,10.129 8.52,16.461 1.85,6.321 2.77,13.75 2.77,22.289 0,9.16 -1.06,16.95 -3.18,23.379 -2.12,6.43 -4.89,11.621 -8.3,15.59 -3.5,4.102 -7.51,7.082 -12.05,8.922 -4.55,1.848 -9.28,2.781 -14.2,2.781 -5,0 -9.7,-0.902 -14.1,-2.683 -4.42,-1.778 -8.47,-4.707 -12.16,-8.809 -3.42,-3.84 -6.2,-9.109 -8.35,-15.852 -2.16,-6.726 -3.23,-14.539 -3.23,-23.429 0,-9.09 1.03,-16.828 3.12,-23.219 2.09,-6.398 4.85,-11.609 8.26,-15.641 3.42,-4.039 7.42,-7.007 12,-8.918 4.58,-1.91 9.39,-2.871 14.46,-2.871 5.05,0 9.87,0.981 14.45,2.918 4.58,1.953 8.58,4.981 11.99,9.082 z m 52.2,38.649 c 0,-24.328 -6.97,-43.66 -20.92,-57.977 -13.94,-14.32 -33.22,-21.492 -57.83,-21.492 -24.54,0 -43.79,7.172 -57.73,21.492 -13.95,14.317 -20.92,33.649 -20.92,57.977 0,24.551 6.97,43.941 20.92,58.203 13.94,14.25 33.19,21.367 57.73,21.367 24.47,0 43.71,-7.117 57.73,-21.367 14.01,-14.262 21.02,-33.652 21.02,-58.203"
         style="fill:#cf123c;fill-opacity:1;fill-rule:nonzero;stroke:none"
         id="path26" />
      <path
         d="M 1792.79,407.859 1751.68,255.18 h -43.65 l -27.31,99.468 -26.69,-99.468 h -43.54 l -41.12,152.679 h 41.09 l 23.43,-105.097 28.17,105.097 h 39.27 l 26.74,-105.097 24.59,105.097 h 40.13"
         style="fill:#cf123c;fill-opacity:1;fill-rule:nonzero;stroke:none"
         id="path28" />
      <path
         d="m 1929.48,255.18 h -110.44 v 152.679 h 110.44 v -29.527 h -71.27 V 351.98 h 66.14 v -29.531 h -66.14 v -37.73 h 71.27 V 255.18"
         style="fill:#cf123c;fill-opacity:1;fill-rule:nonzero;stroke:none"
         id="path30" />
      <path
         d="m 2048.11,361.102 c 0,3.828 -0.79,7.109 -2.36,9.847 -1.57,2.731 -4.28,4.891 -8.09,6.461 -2.68,1.102 -5.78,1.762 -9.34,2 -3.55,0.238 -7.69,0.36 -12.4,0.36 h -14.26 v -41.122 h 12.1 c 6.29,0 11.55,0.301 15.79,0.934 4.24,0.598 7.79,2.008 10.66,4.199 2.74,2.117 4.74,4.461 6,7.02 1.27,2.57 1.9,6.008 1.9,10.301 z m 61.42,-105.922 h -48.09 l -41.54,55.992 h -18.24 V 255.18 h -39.17 v 152.679 h 66.04 c 9.02,0 16.77,-0.507 23.27,-1.527 6.49,-1.031 12.58,-3.25 18.26,-6.672 5.74,-3.422 10.3,-7.84 13.68,-13.269 3.39,-5.442 5.08,-12.262 5.08,-20.461 0,-11.282 -2.62,-20.481 -7.84,-27.578 -5.24,-7.122 -12.71,-13.032 -22.41,-17.75 l 50.96,-65.422"
         style="fill:#cf123c;fill-opacity:1;fill-rule:nonzero;stroke:none"
         id="path32" />
      <path
         d="M 110.434,3.17969 H 0 V 155.859 H 110.434 V 126.332 H 39.168 V 99.9805 h 66.141 V 70.4492 H 39.168 V 32.7109 h 71.266 V 3.17969"
         style="fill:#cf123c;fill-opacity:1;fill-rule:nonzero;stroke:none"
         id="path34" />
      <path
         d="M 253.578,3.17969 H 143.453 V 155.859 h 39.375 V 32.7109 h 70.75 V 3.17969"
         style="fill:#cf123c;fill-opacity:1;fill-rule:nonzero;stroke:none"
         id="path36" />
      <path
         d="M 387.699,3.17969 H 277.266 V 155.859 H 387.699 V 126.332 H 316.438 V 99.9805 h 66.136 V 70.4492 H 316.438 V 32.7109 h 71.261 V 3.17969"
         style="fill:#cf123c;fill-opacity:1;fill-rule:nonzero;stroke:none"
         id="path38" />
      <path
         d="m 489.727,0.210938 c -11.348,0 -21.829,1.667972 -31.43,5.019532 -9.606,3.35156 -17.859,8.33983 -24.762,14.96873 -6.902,6.6406 -12.25,14.9102 -16.051,24.8203 -3.789,9.9102 -5.687,21.3594 -5.687,34.3516 0,12.0898 1.812,23.0699 5.433,32.9099 3.625,9.848 8.887,18.289 15.793,25.34 6.629,6.75 14.848,11.988 24.657,15.68 9.808,3.691 20.527,5.539 32.148,5.539 6.426,0 12.219,-0.36 17.383,-1.078 5.156,-0.723 9.93,-1.66 14.305,-2.821 4.578,-1.3 8.726,-2.75 12.453,-4.351 3.726,-1.621 6.992,-3.102 9.797,-4.469 v -37.019 h -4.512 c -1.914,1.64 -4.328,3.578 -7.227,5.82 -2.91,2.25 -6.207,4.449 -9.898,6.629 -3.762,2.179 -7.828,4.019 -12.203,5.508 -4.375,1.492 -9.059,2.25 -14.047,2.25 -5.535,0 -10.801,-0.868 -15.789,-2.61 -4.992,-1.738 -9.606,-4.629 -13.844,-8.648 -4.035,-3.891 -7.301,-9.039 -9.797,-15.449 -2.496,-6.4106 -3.738,-14.1918 -3.738,-23.3325 0,-9.5507 1.348,-17.5273 4.051,-23.9492 2.695,-6.4101 6.097,-11.4609 10.203,-15.1406 4.168,-3.75 8.816,-6.4297 13.941,-8.0313 5.129,-1.5976 10.188,-2.3984 15.18,-2.3984 4.781,0 9.516,0.7109 14.203,2.1289 4.676,1.4297 9.004,3.3711 12.969,5.8125 3.347,1.9805 6.461,4.0899 9.332,6.3281 2.871,2.25 5.226,4.1797 7.074,5.8203 h 4.102 v -36.5 C 539.938,11.6211 536.277,10.0195 532.793,8.51953 529.309,7.01172 525.648,5.71094 521.82,4.62109 516.832,3.17969 512.148,2.08984 507.773,1.33984 503.398,0.589844 497.383,0.210938 489.727,0.210938"
         style="fill:#cf123c;fill-opacity:1;fill-rule:nonzero;stroke:none"
         id="path40" />
      <path
         d="M 692.141,126.332 H 644.457 V 3.17969 H 605.082 V 126.332 h -47.68 v 29.527 h 134.739 v -29.527"
         style="fill:#cf123c;fill-opacity:1;fill-rule:nonzero;stroke:none"
         id="path42" />
      <path
         d="m 801.445,109.102 c 0,3.828 -0.785,7.109 -2.359,9.839 -1.57,2.739 -4.273,4.899 -8.102,6.469 -2.664,1.09 -5.773,1.762 -9.328,2 -3.554,0.238 -7.691,0.36 -12.41,0.36 h -14.25 V 86.6484 h 12.098 c 6.289,0 11.554,0.3008 15.793,0.9336 4.238,0.5977 7.793,2.0078 10.664,4.1993 2.734,2.1171 4.73,4.457 5.996,7.0195 1.266,2.5702 1.898,6.0002 1.898,10.3012 z M 862.867,3.17969 H 814.773 L 773.238,59.1719 H 754.996 V 3.17969 H 715.824 V 155.859 h 66.035 c 9.024,0 16.786,-0.507 23.278,-1.527 6.496,-1.031 12.578,-3.262 18.254,-6.672 5.742,-3.418 10.304,-7.851 13.683,-13.281 3.391,-5.438 5.078,-12.25 5.078,-20.449 0,-11.282 -2.617,-20.4808 -7.839,-27.5784 -5.235,-7.1211 -12.704,-13.0313 -22.411,-17.75 L 862.867,3.17969"
         style="fill:#cf123c;fill-opacity:1;fill-rule:nonzero;stroke:none"
         id="path44" />
      <path
         d="m 976.379,40.8203 c 3.824,4.6406 6.664,10.1289 8.508,16.4492 1.847,6.3203 2.769,13.75 2.769,22.3008 0,9.1602 -1.058,16.9492 -3.179,23.3787 -2.118,6.422 -4.887,11.621 -8.305,15.582 -3.484,4.11 -7.504,7.078 -12.047,8.93 -4.551,1.848 -9.281,2.769 -14.203,2.769 -4.988,0 -9.692,-0.89 -14.098,-2.671 -4.414,-1.778 -8.461,-4.707 -12.152,-8.809 -3.418,-3.84 -6.207,-9.109 -8.356,-15.852 -2.156,-6.7261 -3.23,-14.5386 -3.23,-23.4292 0,-9.0899 1.039,-16.8282 3.125,-23.2188 2.086,-6.3984 4.84,-11.6094 8.258,-15.6484 3.418,-4.0313 7.414,-7 11.996,-8.9102 4.578,-1.9219 9.398,-2.8711 14.457,-2.8711 5.058,0 9.879,0.9688 14.457,2.9219 4.582,1.9492 8.582,4.9766 12,9.0781 z m 52.191,38.6485 c 0,-24.3282 -6.97,-43.6602 -20.92,-57.9883 C 993.707,7.17188 974.43,0 949.82,0 c -24.543,0 -43.785,7.17188 -57.73,21.4805 -13.945,14.3281 -20.918,33.6601 -20.918,57.9883 0,24.5432 6.973,43.9412 20.918,58.2032 13.945,14.238 33.187,21.367 57.73,21.367 24.473,0 43.715,-7.129 57.73,-21.367 14.01,-14.262 21.02,-33.66 21.02,-58.2032"
         style="fill:#cf123c;fill-opacity:1;fill-rule:nonzero;stroke:none"
         id="path46" />
      <path
         d="m 1197.45,3.17969 h -37.94 L 1094.71,107.98 V 3.17969 h -36.1 V 155.859 h 47.07 l 55.68,-87.4606 v 87.4606 h 36.09 V 3.17969"
         style="fill:#cf123c;fill-opacity:1;fill-rule:nonzero;stroke:none"
         id="path48" />
      <path
         d="m 1318.96,3.17969 h -89.41 V 30.25 h 25.02 v 98.539 h -25.02 v 27.07 h 89.41 v -27.07 h -25.02 V 30.25 h 25.02 V 3.17969"
         style="fill:#cf123c;fill-opacity:1;fill-rule:nonzero;stroke:none"
         id="path50" />
      <path
         d="m 1420.06,0.210938 c -11.35,0 -21.82,1.667972 -31.43,5.019532 -9.61,3.35156 -17.85,8.33983 -24.76,14.96873 -6.9,6.6406 -12.25,14.9102 -16.05,24.8203 -3.79,9.9102 -5.69,21.3594 -5.69,34.3516 0,12.0898 1.82,23.0699 5.44,32.9099 3.62,9.848 8.89,18.289 15.79,25.34 6.63,6.75 14.84,11.988 24.66,15.68 9.81,3.691 20.52,5.539 32.15,5.539 6.42,0 12.21,-0.36 17.38,-1.078 5.16,-0.723 9.93,-1.66 14.3,-2.821 4.58,-1.3 8.74,-2.75 12.46,-4.351 3.73,-1.621 6.99,-3.102 9.79,-4.469 v -37.019 h -4.51 c -1.91,1.64 -4.33,3.578 -7.23,5.82 -2.91,2.25 -6.2,4.449 -9.89,6.629 -3.76,2.179 -7.83,4.019 -12.21,5.508 -4.37,1.492 -9.05,2.25 -14.05,2.25 -5.53,0 -10.8,-0.868 -15.78,-2.61 -5,-1.738 -9.61,-4.629 -13.85,-8.648 -4.03,-3.891 -7.3,-9.039 -9.79,-15.449 -2.49,-6.4106 -3.74,-14.1918 -3.74,-23.3325 0,-9.5507 1.34,-17.5273 4.05,-23.9492 2.69,-6.4101 6.1,-11.4609 10.2,-15.1406 4.16,-3.75 8.81,-6.4297 13.95,-8.0313 5.12,-1.5976 10.18,-2.3984 15.18,-2.3984 4.78,0 9.51,0.7109 14.2,2.1289 4.67,1.4297 9,3.3711 12.96,5.8125 3.35,1.9805 6.46,4.0899 9.33,6.3281 2.87,2.25 5.23,4.1797 7.08,5.8203 h 4.1 v -36.5 c -3.83,-1.7187 -7.49,-3.3203 -10.97,-4.82027 -3.49,-1.50781 -7.14,-2.80859 -10.97,-3.89844 -4.99,-1.4414 -9.68,-2.53125 -14.05,-3.28125 -4.38,-0.749996 -10.4,-1.128902 -18.05,-1.128902"
         style="fill:#cf123c;fill-opacity:1;fill-rule:nonzero;stroke:none"
         id="path52" />
      <path
         d="m 1625.24,51.1719 c 0,-15.043 -6.37,-27.25 -19.12,-36.6602 -12.75,-9.39061 -30.07,-14.101544 -51.94,-14.101544 -12.65,0 -23.66,1.109374 -33.07,3.339844 -9.39,2.21875 -18.2,5.03906 -26.4,8.4609 v 36.5977 h 4.31 c 8.13,-6.5 17.24,-11.4883 27.33,-14.957 10.08,-3.5 19.76,-5.2422 29.06,-5.2422 2.39,0 5.55,0.2109 9.43,0.6211 3.91,0.4101 7.08,1.0898 9.54,2.0508 3.01,1.2304 5.49,2.7578 7.44,4.6171 1.95,1.8321 2.93,4.5704 2.93,8.2032 0,3.3398 -1.43,6.2304 -4.26,8.6601 -2.84,2.418 -6.99,4.2891 -12.46,5.5899 -5.74,1.3672 -11.81,2.6484 -18.21,3.8476 -6.38,1.1914 -12.39,2.711 -17.98,4.5625 -12.87,4.168 -22.1,9.8203 -27.75,16.9688 -5.63,7.1406 -8.46,16.0117 -8.46,26.6015 0,14.219 6.38,25.828 19.13,34.816 12.75,8.993 29.14,13.481 49.17,13.481 10.04,0 19.98,-0.969 29.78,-2.918 9.82,-1.949 18.3,-4.391 25.49,-7.332 v -35.18 h -4.21 c -6.15,4.922 -13.69,9.051 -22.61,12.371 -8.92,3.309 -18.03,4.969 -27.32,4.969 -3.28,0 -6.55,-0.23 -9.8,-0.668 -3.25,-0.449 -6.37,-1.281 -9.38,-2.512 -2.67,-1.027 -4.96,-2.589 -6.88,-4.668 -1.91,-2.089 -2.87,-4.461 -2.87,-7.121 0,-4.039 1.55,-7.129 4.62,-9.281 3.08,-2.16 8.89,-4.117 17.43,-5.898 5.61,-1.1605 10.99,-2.2894 16.16,-3.3793 5.15,-1.1015 10.71,-2.6133 16.66,-4.5117 11.69,-3.8398 20.32,-9.0391 25.88,-15.6484 5.58,-6.5899 8.36,-15.1524 8.36,-25.6797"
         style="fill:#cf123c;fill-opacity:1;fill-rule:nonzero;stroke:none"
         id="path54" />
      <path
         d="m 1846.22,51.1719 c 0,-15.043 -6.38,-27.25 -19.12,-36.6602 -12.75,-9.39061 -30.07,-14.101544 -51.94,-14.101544 -12.65,0 -23.67,1.109374 -33.07,3.339844 -9.39,2.21875 -18.2,5.03906 -26.41,8.4609 v 36.5977 h 4.32 c 8.13,-6.5 17.24,-11.4883 27.32,-14.957 10.08,-3.5 19.77,-5.2422 29.07,-5.2422 2.39,0 5.54,0.2109 9.43,0.6211 3.91,0.4101 7.08,1.0898 9.54,2.0508 3.01,1.2304 5.49,2.7578 7.43,4.6171 1.96,1.8321 2.93,4.5704 2.93,8.2032 0,3.3398 -1.42,6.2304 -4.26,8.6601 -2.84,2.418 -6.99,4.2891 -12.46,5.5899 -5.74,1.3672 -11.8,2.6484 -18.2,3.8476 -6.39,1.1914 -12.39,2.711 -17.99,4.5625 -12.86,4.168 -22.1,9.8203 -27.74,16.9688 -5.64,7.1406 -8.46,16.0117 -8.46,26.6015 0,14.219 6.38,25.828 19.12,34.816 12.76,8.993 29.14,13.481 49.17,13.481 10.05,0 19.98,-0.969 29.79,-2.918 9.81,-1.949 18.3,-4.391 25.49,-7.332 v -35.18 h -4.21 c -6.16,4.922 -13.69,9.051 -22.61,12.371 -8.93,3.309 -18.04,4.969 -27.32,4.969 -3.29,0 -6.56,-0.23 -9.8,-0.668 -3.25,-0.449 -6.38,-1.281 -9.38,-2.512 -2.67,-1.027 -4.97,-2.589 -6.88,-4.668 -1.91,-2.089 -2.87,-4.461 -2.87,-7.121 0,-4.039 1.54,-7.129 4.62,-9.281 3.07,-2.16 8.89,-4.117 17.43,-5.898 5.61,-1.1605 10.99,-2.2894 16.15,-3.3793 5.16,-1.1015 10.72,-2.6133 16.66,-4.5117 11.69,-3.8398 20.32,-9.0391 25.89,-15.6484 5.58,-6.5899 8.36,-15.1524 8.36,-25.6797"
         style="fill:#cf123c;fill-opacity:1;fill-rule:nonzero;stroke:none"
         id="path56" />
      <path
         d="m 1969.46,40.8203 c 3.83,4.6406 6.67,10.1289 8.52,16.4492 1.84,6.3203 2.77,13.75 2.77,22.3008 0,9.1602 -1.06,16.9492 -3.18,23.3787 -2.12,6.422 -4.89,11.621 -8.3,15.582 -3.5,4.11 -7.51,7.078 -12.05,8.93 -4.55,1.848 -9.28,2.769 -14.2,2.769 -5,0 -9.7,-0.89 -14.1,-2.671 -4.42,-1.778 -8.46,-4.707 -12.15,-8.809 -3.43,-3.84 -6.21,-9.109 -8.36,-15.852 -2.16,-6.7261 -3.23,-14.5386 -3.23,-23.4292 0,-9.0899 1.04,-16.8282 3.12,-23.2188 2.09,-6.3984 4.83,-11.6094 8.25,-15.6484 3.42,-4.0313 7.42,-7 12,-8.9102 4.58,-1.9219 9.4,-2.8711 14.47,-2.8711 5.05,0 9.87,0.9688 14.45,2.9219 4.58,1.9492 8.57,4.9766 11.99,9.0781 z m 52.2,38.6485 c 0,-24.3282 -6.97,-43.6602 -20.92,-57.9883 C 1986.8,7.17188 1967.52,0 1942.91,0 c -24.54,0 -43.78,7.17188 -57.72,21.4805 -13.95,14.3281 -20.92,33.6601 -20.92,57.9883 0,24.5432 6.97,43.9412 20.92,58.2032 13.94,14.238 33.18,21.367 57.72,21.367 24.47,0 43.71,-7.129 57.72,-21.367 14.02,-14.262 21.03,-33.66 21.03,-58.2032"
         style="fill:#cf123c;fill-opacity:1;fill-rule:nonzero;stroke:none"
         id="path58" />
      <path
         d="m 2120.72,0.210938 c -11.35,0 -21.82,1.667972 -31.43,5.019532 -9.6,3.35156 -17.86,8.33983 -24.76,14.96873 -6.91,6.6406 -12.25,14.9102 -16.05,24.8203 -3.79,9.9102 -5.69,21.3594 -5.69,34.3516 0,12.0898 1.81,23.0699 5.43,32.9099 3.63,9.848 8.89,18.289 15.79,25.34 6.63,6.75 14.86,11.988 24.66,15.68 9.82,3.691 20.53,5.539 32.15,5.539 6.43,0 12.22,-0.36 17.38,-1.078 5.16,-0.723 9.93,-1.66 14.3,-2.821 4.58,-1.3 8.74,-2.75 12.46,-4.351 3.73,-1.621 6.99,-3.102 9.8,-4.469 v -37.019 h -4.52 c -1.91,1.64 -4.32,3.578 -7.22,5.82 -2.91,2.25 -6.2,4.449 -9.89,6.629 -3.77,2.179 -7.84,4.019 -12.21,5.508 -4.38,1.492 -9.06,2.25 -14.04,2.25 -5.55,0 -10.82,-0.868 -15.81,-2.61 -4.99,-1.738 -9.6,-4.629 -13.83,-8.648 -4.04,-3.891 -7.3,-9.039 -9.8,-15.449 -2.49,-6.4106 -3.74,-14.1918 -3.74,-23.3325 0,-9.5507 1.35,-17.5273 4.05,-23.9492 2.7,-6.4101 6.1,-11.4609 10.2,-15.1406 4.17,-3.75 8.83,-6.4297 13.94,-8.0313 5.14,-1.5976 10.19,-2.3984 15.18,-2.3984 4.79,0 9.52,0.7109 14.21,2.1289 4.68,1.4297 9,3.3711 12.97,5.8125 3.35,1.9805 6.45,4.0899 9.32,6.3281 2.88,2.25 5.24,4.1797 7.08,5.8203 h 4.11 v -36.5 c -3.83,-1.7187 -7.49,-3.3203 -10.97,-4.82027 -3.5,-1.50781 -7.15,-2.80859 -10.98,-3.89844 -4.99,-1.4414 -9.68,-2.53125 -14.04,-3.28125 -4.39,-0.749996 -10.4,-1.128902 -18.05,-1.128902"
         style="fill:#cf123c;fill-opacity:1;fill-rule:nonzero;stroke:none"
         id="path60" />
      <path
         d="M 2286.21,3.17969 H 2196.8 V 30.25 h 25.02 v 98.539 h -25.02 v 27.07 h 89.41 v -27.07 h -25.02 V 30.25 h 25.02 V 3.17969"
         style="fill:#cf123c;fill-opacity:1;fill-rule:nonzero;stroke:none"
         id="path62" />
      <path
         d="M 2428.75,3.17969 H 2318.31 V 155.859 h 110.44 v -29.527 h -71.27 V 99.9805 h 66.13 V 70.4492 h -66.13 V 32.7109 h 71.27 V 3.17969"
         style="fill:#cf123c;fill-opacity:1;fill-rule:nonzero;stroke:none"
         id="path64" />
      <path
         d="m 2581.22,126.332 h -47.68 V 3.17969 h -39.38 V 126.332 h -47.69 v 29.527 h 134.75 v -29.527"
         style="fill:#cf123c;fill-opacity:1;fill-rule:nonzero;stroke:none"
         id="path66" />
      <path
         d="M 2739.23,155.859 2682.94,62.25 V 3.17969 h -39.38 V 60.3984 l -57.22,95.4606 h 44.83 l 32.92,-58.8902 31.83,58.8902 h 43.31"
         style="fill:#cf123c;fill-opacity:1;fill-rule:nonzero;stroke:none"
         id="path68" />
    </g>
  </g>
</svg>
